G75*
%MOIN*%
%OFA0B0*%
%FSLAX25Y25*%
%IPPOS*%
%LPD*%
%AMOC8*
5,1,8,0,0,1.08239X$1,22.5*
%
%ADD10C,0.07400*%
%ADD11C,0.04356*%
%ADD12C,0.01600*%
%ADD13C,0.01000*%
D10*
X0023454Y0076603D03*
X0023454Y0086603D03*
X0023454Y0096603D03*
X0167107Y0099930D03*
X0167107Y0089930D03*
X0167107Y0079930D03*
X0167107Y0069930D03*
X0167107Y0109930D03*
X0167107Y0119930D03*
D11*
X0145501Y0117942D03*
X0098257Y0137627D03*
X0066761Y0117942D03*
X0037233Y0086446D03*
X0110068Y0033296D03*
X0137627Y0033296D03*
X0196682Y0119910D03*
D12*
X0190235Y0005400D02*
X0018090Y0005400D01*
X0018879Y0005727D01*
X0021495Y0008343D01*
X0022911Y0011761D01*
X0022911Y0015461D01*
X0021495Y0018879D01*
X0018879Y0021495D01*
X0015461Y0022911D01*
X0011761Y0022911D01*
X0008343Y0021495D01*
X0005727Y0018879D01*
X0005400Y0018090D01*
X0005400Y0154801D01*
X0005727Y0154012D01*
X0008343Y0151396D01*
X0011761Y0149980D01*
X0015461Y0149980D01*
X0018879Y0151396D01*
X0021495Y0154012D01*
X0022911Y0157430D01*
X0022911Y0161130D01*
X0021495Y0164548D01*
X0018879Y0167164D01*
X0018090Y0167491D01*
X0190235Y0167491D01*
X0189445Y0167164D01*
X0186829Y0164548D01*
X0185413Y0161130D01*
X0185413Y0157430D01*
X0186829Y0154012D01*
X0189445Y0151396D01*
X0192863Y0149980D01*
X0196563Y0149980D01*
X0199981Y0151396D01*
X0202598Y0154012D01*
X0202924Y0154801D01*
X0202924Y0018090D01*
X0202598Y0018879D01*
X0199981Y0021495D01*
X0196563Y0022911D01*
X0192863Y0022911D01*
X0189445Y0021495D01*
X0186829Y0018879D01*
X0185413Y0015461D01*
X0185413Y0011761D01*
X0186829Y0008343D01*
X0189445Y0005727D01*
X0190235Y0005400D01*
X0188724Y0006448D02*
X0019600Y0006448D01*
X0021199Y0008047D02*
X0187125Y0008047D01*
X0186290Y0009645D02*
X0022035Y0009645D01*
X0022697Y0011244D02*
X0185628Y0011244D01*
X0185413Y0012842D02*
X0022911Y0012842D01*
X0022911Y0014441D02*
X0185413Y0014441D01*
X0185653Y0016039D02*
X0022671Y0016039D01*
X0022009Y0017638D02*
X0186315Y0017638D01*
X0187187Y0019236D02*
X0021138Y0019236D01*
X0019539Y0020835D02*
X0188785Y0020835D01*
X0191710Y0022433D02*
X0016614Y0022433D01*
X0010608Y0022433D02*
X0005400Y0022433D01*
X0005400Y0020835D02*
X0007683Y0020835D01*
X0006084Y0019236D02*
X0005400Y0019236D01*
X0005400Y0024032D02*
X0202924Y0024032D01*
X0202924Y0025630D02*
X0005400Y0025630D01*
X0005400Y0027229D02*
X0202924Y0027229D01*
X0202924Y0028827D02*
X0139846Y0028827D01*
X0140447Y0029076D02*
X0141847Y0030476D01*
X0142605Y0032306D01*
X0142605Y0034286D01*
X0141847Y0036116D01*
X0140447Y0037516D01*
X0138617Y0038274D01*
X0136637Y0038274D01*
X0134807Y0037516D01*
X0133887Y0036596D01*
X0113808Y0036596D01*
X0112887Y0037516D01*
X0111058Y0038274D01*
X0109078Y0038274D01*
X0107248Y0037516D01*
X0105848Y0036116D01*
X0105090Y0034286D01*
X0105090Y0032306D01*
X0105848Y0030476D01*
X0107248Y0029076D01*
X0109078Y0028318D01*
X0111058Y0028318D01*
X0112887Y0029076D01*
X0113808Y0029996D01*
X0133887Y0029996D01*
X0134807Y0029076D01*
X0136637Y0028318D01*
X0138617Y0028318D01*
X0140447Y0029076D01*
X0141797Y0030426D02*
X0202924Y0030426D01*
X0202924Y0032024D02*
X0142488Y0032024D01*
X0142605Y0033623D02*
X0202924Y0033623D01*
X0202924Y0035221D02*
X0142217Y0035221D01*
X0141143Y0036820D02*
X0202924Y0036820D01*
X0202924Y0038418D02*
X0061102Y0038418D01*
X0060296Y0037612D02*
X0062191Y0039507D01*
X0063216Y0041984D01*
X0063216Y0044664D01*
X0062191Y0047140D01*
X0060296Y0049035D01*
X0057819Y0050061D01*
X0055139Y0050061D01*
X0052663Y0049035D01*
X0050768Y0047140D01*
X0049742Y0044664D01*
X0049742Y0041984D01*
X0050768Y0039507D01*
X0052663Y0037612D01*
X0055139Y0036587D01*
X0057819Y0036587D01*
X0060296Y0037612D01*
X0058383Y0036820D02*
X0106552Y0036820D01*
X0105477Y0035221D02*
X0005400Y0035221D01*
X0005400Y0033623D02*
X0105090Y0033623D01*
X0105206Y0032024D02*
X0005400Y0032024D01*
X0005400Y0030426D02*
X0105898Y0030426D01*
X0107848Y0028827D02*
X0005400Y0028827D01*
X0005400Y0036820D02*
X0027017Y0036820D01*
X0027580Y0036587D02*
X0025104Y0037612D01*
X0023209Y0039507D01*
X0022183Y0041984D01*
X0022183Y0044664D01*
X0023209Y0047140D01*
X0025104Y0049035D01*
X0027580Y0050061D01*
X0030260Y0050061D01*
X0032737Y0049035D01*
X0034632Y0047140D01*
X0035657Y0044664D01*
X0035657Y0041984D01*
X0034632Y0039507D01*
X0032737Y0037612D01*
X0030260Y0036587D01*
X0027580Y0036587D01*
X0030824Y0036820D02*
X0054576Y0036820D01*
X0051857Y0038418D02*
X0033543Y0038418D01*
X0034843Y0040017D02*
X0050557Y0040017D01*
X0049895Y0041616D02*
X0035505Y0041616D01*
X0035657Y0043214D02*
X0049742Y0043214D01*
X0049804Y0044813D02*
X0035596Y0044813D01*
X0034934Y0046411D02*
X0050466Y0046411D01*
X0051638Y0048010D02*
X0033762Y0048010D01*
X0031353Y0049608D02*
X0054047Y0049608D01*
X0058912Y0049608D02*
X0202924Y0049608D01*
X0202924Y0048010D02*
X0061321Y0048010D01*
X0062493Y0046411D02*
X0202924Y0046411D01*
X0202924Y0044813D02*
X0063155Y0044813D01*
X0063216Y0043214D02*
X0202924Y0043214D01*
X0202924Y0041616D02*
X0063064Y0041616D01*
X0062402Y0040017D02*
X0202924Y0040017D01*
X0202924Y0051207D02*
X0005400Y0051207D01*
X0005400Y0052805D02*
X0202924Y0052805D01*
X0202924Y0054404D02*
X0005400Y0054404D01*
X0005400Y0056002D02*
X0202924Y0056002D01*
X0202924Y0057601D02*
X0005400Y0057601D01*
X0005400Y0059199D02*
X0202924Y0059199D01*
X0202924Y0060798D02*
X0005400Y0060798D01*
X0005400Y0062396D02*
X0202924Y0062396D01*
X0202924Y0063995D02*
X0169764Y0063995D01*
X0170789Y0064419D02*
X0172618Y0066248D01*
X0173607Y0068637D01*
X0173607Y0071223D01*
X0172618Y0073612D01*
X0171300Y0074930D01*
X0172618Y0076248D01*
X0173607Y0078637D01*
X0173607Y0081223D01*
X0172618Y0083612D01*
X0171300Y0084930D01*
X0172618Y0086248D01*
X0173607Y0088637D01*
X0173607Y0091223D01*
X0172618Y0093612D01*
X0171300Y0094930D01*
X0172618Y0096248D01*
X0173607Y0098637D01*
X0173607Y0101223D01*
X0172618Y0103612D01*
X0171300Y0104930D01*
X0172618Y0106248D01*
X0173607Y0108637D01*
X0173607Y0111223D01*
X0172618Y0113612D01*
X0170789Y0115440D01*
X0170468Y0115573D01*
X0170690Y0115734D01*
X0171302Y0116347D01*
X0171811Y0117047D01*
X0172204Y0117818D01*
X0172472Y0118642D01*
X0172607Y0119497D01*
X0172607Y0119730D01*
X0167307Y0119730D01*
X0167307Y0120130D01*
X0166907Y0120130D01*
X0166907Y0125430D01*
X0166674Y0125430D01*
X0165819Y0125294D01*
X0164996Y0125027D01*
X0164225Y0124634D01*
X0163524Y0124125D01*
X0162912Y0123513D01*
X0162403Y0122812D01*
X0162010Y0122041D01*
X0161743Y0121218D01*
X0161607Y0120362D01*
X0161607Y0120130D01*
X0166907Y0120130D01*
X0166907Y0119730D01*
X0161607Y0119730D01*
X0161607Y0119497D01*
X0161743Y0118642D01*
X0162010Y0117818D01*
X0162403Y0117047D01*
X0162912Y0116347D01*
X0163524Y0115734D01*
X0163746Y0115573D01*
X0163425Y0115440D01*
X0161597Y0113612D01*
X0161439Y0113230D01*
X0154880Y0113230D01*
X0150479Y0117631D01*
X0150479Y0118932D01*
X0149721Y0120762D01*
X0148321Y0122162D01*
X0146491Y0122920D01*
X0145190Y0122920D01*
X0128613Y0139496D01*
X0127685Y0140424D01*
X0126472Y0140927D01*
X0101997Y0140927D01*
X0101076Y0141847D01*
X0099247Y0142605D01*
X0097267Y0142605D01*
X0095437Y0141847D01*
X0094517Y0140927D01*
X0085789Y0140927D01*
X0084576Y0140424D01*
X0083648Y0139496D01*
X0067072Y0122920D01*
X0065770Y0122920D01*
X0063941Y0122162D01*
X0062541Y0120762D01*
X0061783Y0118932D01*
X0061783Y0116952D01*
X0062541Y0115122D01*
X0063941Y0113722D01*
X0065770Y0112964D01*
X0067751Y0112964D01*
X0069580Y0113722D01*
X0070981Y0115122D01*
X0071739Y0116952D01*
X0071739Y0118253D01*
X0087813Y0134327D01*
X0094517Y0134327D01*
X0095437Y0133407D01*
X0097267Y0132649D01*
X0099247Y0132649D01*
X0101076Y0133407D01*
X0101997Y0134327D01*
X0124449Y0134327D01*
X0140523Y0118253D01*
X0140523Y0116952D01*
X0141281Y0115122D01*
X0142681Y0113722D01*
X0144511Y0112964D01*
X0145812Y0112964D01*
X0151644Y0107132D01*
X0152856Y0106630D01*
X0161439Y0106630D01*
X0161597Y0106248D01*
X0162915Y0104930D01*
X0161597Y0103612D01*
X0160607Y0101223D01*
X0160607Y0098637D01*
X0161597Y0096248D01*
X0162915Y0094930D01*
X0161597Y0093612D01*
X0160607Y0091223D01*
X0160607Y0088637D01*
X0161597Y0086248D01*
X0162915Y0084930D01*
X0161597Y0083612D01*
X0160607Y0081223D01*
X0160607Y0078637D01*
X0161597Y0076248D01*
X0162915Y0074930D01*
X0161597Y0073612D01*
X0160607Y0071223D01*
X0160607Y0068637D01*
X0161597Y0066248D01*
X0163425Y0064419D01*
X0165814Y0063430D01*
X0168400Y0063430D01*
X0170789Y0064419D01*
X0171963Y0065593D02*
X0202924Y0065593D01*
X0202924Y0067192D02*
X0173009Y0067192D01*
X0173607Y0068790D02*
X0202924Y0068790D01*
X0202924Y0070389D02*
X0173607Y0070389D01*
X0173291Y0071987D02*
X0202924Y0071987D01*
X0202924Y0073586D02*
X0172628Y0073586D01*
X0171554Y0075184D02*
X0202924Y0075184D01*
X0202924Y0076783D02*
X0172839Y0076783D01*
X0173502Y0078381D02*
X0202924Y0078381D01*
X0202924Y0079980D02*
X0173607Y0079980D01*
X0173460Y0081578D02*
X0202924Y0081578D01*
X0202924Y0083177D02*
X0172798Y0083177D01*
X0171454Y0084775D02*
X0202924Y0084775D01*
X0202924Y0086374D02*
X0172670Y0086374D01*
X0173332Y0087972D02*
X0202924Y0087972D01*
X0202924Y0089571D02*
X0173607Y0089571D01*
X0173607Y0091169D02*
X0202924Y0091169D01*
X0202924Y0092768D02*
X0172967Y0092768D01*
X0171863Y0094366D02*
X0202924Y0094366D01*
X0202924Y0095965D02*
X0172335Y0095965D01*
X0173163Y0097563D02*
X0202924Y0097563D01*
X0202924Y0099162D02*
X0173607Y0099162D01*
X0173607Y0100760D02*
X0202924Y0100760D01*
X0202924Y0102359D02*
X0173137Y0102359D01*
X0172272Y0103957D02*
X0202924Y0103957D01*
X0202924Y0105556D02*
X0171926Y0105556D01*
X0172993Y0107154D02*
X0202924Y0107154D01*
X0202924Y0108753D02*
X0173607Y0108753D01*
X0173607Y0110351D02*
X0202924Y0110351D01*
X0202924Y0111950D02*
X0173306Y0111950D01*
X0172644Y0113549D02*
X0202924Y0113549D01*
X0202924Y0115147D02*
X0171082Y0115147D01*
X0171592Y0116746D02*
X0202924Y0116746D01*
X0202924Y0118344D02*
X0172375Y0118344D01*
X0172607Y0120130D02*
X0172607Y0120362D01*
X0172472Y0121218D01*
X0172204Y0122041D01*
X0171811Y0122812D01*
X0171302Y0123513D01*
X0170690Y0124125D01*
X0169990Y0124634D01*
X0169219Y0125027D01*
X0168395Y0125294D01*
X0167540Y0125430D01*
X0167307Y0125430D01*
X0167307Y0120130D01*
X0172607Y0120130D01*
X0172367Y0121541D02*
X0202924Y0121541D01*
X0202924Y0119943D02*
X0167307Y0119943D01*
X0166907Y0119943D02*
X0150060Y0119943D01*
X0150479Y0118344D02*
X0161839Y0118344D01*
X0162622Y0116746D02*
X0151364Y0116746D01*
X0152962Y0115147D02*
X0163132Y0115147D01*
X0161571Y0113549D02*
X0154561Y0113549D01*
X0150023Y0108753D02*
X0005400Y0108753D01*
X0005400Y0110351D02*
X0148424Y0110351D01*
X0146826Y0111950D02*
X0005400Y0111950D01*
X0005400Y0113549D02*
X0064359Y0113549D01*
X0062530Y0115147D02*
X0005400Y0115147D01*
X0005400Y0116746D02*
X0061868Y0116746D01*
X0061783Y0118344D02*
X0005400Y0118344D01*
X0005400Y0119943D02*
X0062201Y0119943D01*
X0063320Y0121541D02*
X0005400Y0121541D01*
X0005400Y0123140D02*
X0067292Y0123140D01*
X0068890Y0124738D02*
X0005400Y0124738D01*
X0005400Y0126337D02*
X0070489Y0126337D01*
X0072087Y0127935D02*
X0005400Y0127935D01*
X0005400Y0129534D02*
X0073686Y0129534D01*
X0075284Y0131132D02*
X0005400Y0131132D01*
X0005400Y0132731D02*
X0076883Y0132731D01*
X0078481Y0134329D02*
X0005400Y0134329D01*
X0005400Y0135928D02*
X0080080Y0135928D01*
X0081678Y0137526D02*
X0005400Y0137526D01*
X0005400Y0139125D02*
X0083277Y0139125D01*
X0083648Y0139496D02*
X0083648Y0139496D01*
X0085298Y0140723D02*
X0005400Y0140723D01*
X0005400Y0142322D02*
X0096583Y0142322D01*
X0099930Y0142322D02*
X0202924Y0142322D01*
X0202924Y0143920D02*
X0005400Y0143920D01*
X0005400Y0145519D02*
X0202924Y0145519D01*
X0202924Y0147117D02*
X0005400Y0147117D01*
X0005400Y0148716D02*
X0202924Y0148716D01*
X0202924Y0150314D02*
X0197370Y0150314D01*
X0200498Y0151913D02*
X0202924Y0151913D01*
X0202924Y0153511D02*
X0202097Y0153511D01*
X0192057Y0150314D02*
X0016267Y0150314D01*
X0019396Y0151913D02*
X0188929Y0151913D01*
X0187330Y0153511D02*
X0020994Y0153511D01*
X0021950Y0155110D02*
X0186375Y0155110D01*
X0185712Y0156708D02*
X0022612Y0156708D01*
X0022911Y0158307D02*
X0185413Y0158307D01*
X0185413Y0159905D02*
X0022911Y0159905D01*
X0022756Y0161504D02*
X0185568Y0161504D01*
X0186230Y0163102D02*
X0022094Y0163102D01*
X0021343Y0164701D02*
X0186982Y0164701D01*
X0188580Y0166299D02*
X0019744Y0166299D01*
X0006228Y0153511D02*
X0005400Y0153511D01*
X0005400Y0151913D02*
X0007826Y0151913D01*
X0005400Y0150314D02*
X0010955Y0150314D01*
X0005400Y0107154D02*
X0151621Y0107154D01*
X0143099Y0113549D02*
X0069162Y0113549D01*
X0070991Y0115147D02*
X0141270Y0115147D01*
X0140608Y0116746D02*
X0071653Y0116746D01*
X0071830Y0118344D02*
X0140432Y0118344D01*
X0138833Y0119943D02*
X0073428Y0119943D01*
X0075027Y0121541D02*
X0137235Y0121541D01*
X0135636Y0123140D02*
X0076625Y0123140D01*
X0078224Y0124738D02*
X0134038Y0124738D01*
X0132439Y0126337D02*
X0079822Y0126337D01*
X0081421Y0127935D02*
X0130841Y0127935D01*
X0129242Y0129534D02*
X0083019Y0129534D01*
X0084618Y0131132D02*
X0127643Y0131132D01*
X0126045Y0132731D02*
X0099444Y0132731D01*
X0097069Y0132731D02*
X0086216Y0132731D01*
X0126964Y0140723D02*
X0202924Y0140723D01*
X0202924Y0139125D02*
X0128985Y0139125D01*
X0130583Y0137526D02*
X0202924Y0137526D01*
X0202924Y0135928D02*
X0132182Y0135928D01*
X0133780Y0134329D02*
X0202924Y0134329D01*
X0202924Y0132731D02*
X0135379Y0132731D01*
X0136977Y0131132D02*
X0202924Y0131132D01*
X0202924Y0129534D02*
X0138576Y0129534D01*
X0140174Y0127935D02*
X0202924Y0127935D01*
X0202924Y0126337D02*
X0141773Y0126337D01*
X0143371Y0124738D02*
X0164430Y0124738D01*
X0162641Y0123140D02*
X0144970Y0123140D01*
X0148941Y0121541D02*
X0161848Y0121541D01*
X0166907Y0121541D02*
X0167307Y0121541D01*
X0167307Y0123140D02*
X0166907Y0123140D01*
X0166907Y0124738D02*
X0167307Y0124738D01*
X0169785Y0124738D02*
X0202924Y0124738D01*
X0202924Y0123140D02*
X0171573Y0123140D01*
X0162289Y0105556D02*
X0005400Y0105556D01*
X0005400Y0103957D02*
X0161943Y0103957D01*
X0161078Y0102359D02*
X0026543Y0102359D01*
X0027135Y0102114D02*
X0028964Y0100285D01*
X0029954Y0097896D01*
X0029954Y0095310D01*
X0028964Y0092921D01*
X0027646Y0091603D01*
X0028964Y0090285D01*
X0029187Y0089746D01*
X0033493Y0089746D01*
X0034413Y0090666D01*
X0036243Y0091424D01*
X0038223Y0091424D01*
X0040053Y0090666D01*
X0041453Y0089265D01*
X0042211Y0087436D01*
X0042211Y0085455D01*
X0041453Y0083626D01*
X0040053Y0082226D01*
X0038223Y0081468D01*
X0036243Y0081468D01*
X0034413Y0082226D01*
X0033493Y0083146D01*
X0029057Y0083146D01*
X0028964Y0082921D01*
X0027646Y0081603D01*
X0028964Y0080285D01*
X0029954Y0077896D01*
X0029954Y0075310D01*
X0028964Y0072921D01*
X0027135Y0071093D01*
X0024746Y0070103D01*
X0022161Y0070103D01*
X0019772Y0071093D01*
X0017943Y0072921D01*
X0016954Y0075310D01*
X0016954Y0077896D01*
X0017943Y0080285D01*
X0019261Y0081603D01*
X0017943Y0082921D01*
X0016954Y0085310D01*
X0016954Y0087896D01*
X0017943Y0090285D01*
X0019261Y0091603D01*
X0017943Y0092921D01*
X0016954Y0095310D01*
X0016954Y0097896D01*
X0017943Y0100285D01*
X0019772Y0102114D01*
X0022161Y0103103D01*
X0024746Y0103103D01*
X0027135Y0102114D01*
X0028489Y0100760D02*
X0160607Y0100760D01*
X0160607Y0099162D02*
X0029429Y0099162D01*
X0029954Y0097563D02*
X0161052Y0097563D01*
X0161880Y0095965D02*
X0029954Y0095965D01*
X0029563Y0094366D02*
X0162352Y0094366D01*
X0161247Y0092768D02*
X0028811Y0092768D01*
X0028080Y0091169D02*
X0035629Y0091169D01*
X0038837Y0091169D02*
X0160607Y0091169D01*
X0160607Y0089571D02*
X0041148Y0089571D01*
X0041989Y0087972D02*
X0160882Y0087972D01*
X0161545Y0086374D02*
X0042211Y0086374D01*
X0041929Y0084775D02*
X0162761Y0084775D01*
X0161417Y0083177D02*
X0041004Y0083177D01*
X0038490Y0081578D02*
X0160755Y0081578D01*
X0160607Y0079980D02*
X0029090Y0079980D01*
X0029753Y0078381D02*
X0160713Y0078381D01*
X0161375Y0076783D02*
X0029954Y0076783D01*
X0029901Y0075184D02*
X0162660Y0075184D01*
X0161586Y0073586D02*
X0029239Y0073586D01*
X0028030Y0071987D02*
X0160924Y0071987D01*
X0160607Y0070389D02*
X0025436Y0070389D01*
X0021471Y0070389D02*
X0005400Y0070389D01*
X0005400Y0071987D02*
X0018877Y0071987D01*
X0017668Y0073586D02*
X0005400Y0073586D01*
X0005400Y0075184D02*
X0017006Y0075184D01*
X0016954Y0076783D02*
X0005400Y0076783D01*
X0005400Y0078381D02*
X0017155Y0078381D01*
X0017817Y0079980D02*
X0005400Y0079980D01*
X0005400Y0081578D02*
X0019236Y0081578D01*
X0017837Y0083177D02*
X0005400Y0083177D01*
X0005400Y0084775D02*
X0017175Y0084775D01*
X0016954Y0086374D02*
X0005400Y0086374D01*
X0005400Y0087972D02*
X0016985Y0087972D01*
X0017647Y0089571D02*
X0005400Y0089571D01*
X0005400Y0091169D02*
X0018827Y0091169D01*
X0018096Y0092768D02*
X0005400Y0092768D01*
X0005400Y0094366D02*
X0017344Y0094366D01*
X0016954Y0095965D02*
X0005400Y0095965D01*
X0005400Y0097563D02*
X0016954Y0097563D01*
X0017478Y0099162D02*
X0005400Y0099162D01*
X0005400Y0100760D02*
X0018418Y0100760D01*
X0020364Y0102359D02*
X0005400Y0102359D01*
X0027671Y0081578D02*
X0035976Y0081578D01*
X0005400Y0068790D02*
X0160607Y0068790D01*
X0161206Y0067192D02*
X0005400Y0067192D01*
X0005400Y0065593D02*
X0162251Y0065593D01*
X0164450Y0063995D02*
X0005400Y0063995D01*
X0005400Y0049608D02*
X0026488Y0049608D01*
X0024079Y0048010D02*
X0005400Y0048010D01*
X0005400Y0046411D02*
X0022907Y0046411D01*
X0022245Y0044813D02*
X0005400Y0044813D01*
X0005400Y0043214D02*
X0022183Y0043214D01*
X0022336Y0041616D02*
X0005400Y0041616D01*
X0005400Y0040017D02*
X0022998Y0040017D01*
X0024298Y0038418D02*
X0005400Y0038418D01*
X0112287Y0028827D02*
X0135407Y0028827D01*
X0134111Y0036820D02*
X0113584Y0036820D01*
X0197716Y0022433D02*
X0202924Y0022433D01*
X0202924Y0020835D02*
X0200642Y0020835D01*
X0202240Y0019236D02*
X0202924Y0019236D01*
D13*
X0137627Y0033296D02*
X0110068Y0033296D01*
X0037233Y0086446D02*
X0023611Y0086446D01*
X0023454Y0086603D01*
X0066761Y0117942D02*
X0086446Y0137627D01*
X0098257Y0137627D01*
X0125816Y0137627D01*
X0145501Y0117942D01*
X0153513Y0109930D01*
X0167107Y0109930D01*
X0167107Y0119930D02*
X0196663Y0119930D01*
X0196682Y0119910D01*
M02*
