G75*
%MOIN*%
%OFA0B0*%
%FSLAX25Y25*%
%IPPOS*%
%LPD*%
%AMOC8*
5,1,8,0,0,1.08239X$1,22.5*
%
%ADD10R,0.03937X0.04331*%
%ADD11R,0.04331X0.03937*%
%ADD12R,0.04724X0.03150*%
%ADD13R,0.03150X0.03150*%
%ADD14R,0.07874X0.09843*%
%ADD15R,0.09843X0.07874*%
%ADD16R,0.04724X0.09843*%
%ADD17R,0.01969X0.00984*%
%ADD18R,0.00984X0.01969*%
%ADD19C,0.00500*%
D10*
X0117942Y0043729D03*
X0117942Y0050422D03*
X0145501Y0057509D03*
X0145501Y0064202D03*
X0161249Y0048454D03*
X0161249Y0041761D03*
X0155343Y0085068D03*
X0155343Y0091761D03*
X0031328Y0102784D03*
X0031328Y0109477D03*
D11*
X0045698Y0110068D03*
X0052391Y0110068D03*
X0059477Y0110068D03*
X0066170Y0110068D03*
X0066170Y0100225D03*
X0059477Y0100225D03*
X0052391Y0100225D03*
X0045698Y0100225D03*
X0045698Y0086446D03*
X0052391Y0086446D03*
X0073257Y0100225D03*
X0079950Y0100225D03*
X0090973Y0100225D03*
X0097666Y0100225D03*
X0097666Y0110068D03*
X0090973Y0110068D03*
X0090973Y0119910D03*
X0097666Y0119910D03*
X0108712Y0119910D03*
X0115405Y0119910D03*
X0115518Y0129753D03*
X0108825Y0129753D03*
X0108690Y0139595D03*
X0115383Y0139595D03*
X0115383Y0151406D03*
X0108690Y0151406D03*
X0167745Y0139595D03*
X0174438Y0139595D03*
X0146859Y0099795D03*
X0140166Y0099795D03*
X0140186Y0092351D03*
X0146879Y0092351D03*
X0144910Y0051013D03*
X0138217Y0051013D03*
X0137036Y0043139D03*
X0130343Y0043139D03*
X0093729Y0070698D03*
X0087036Y0070698D03*
X0087333Y0059932D03*
X0080640Y0059932D03*
D12*
X0108099Y0050619D03*
X0108099Y0043532D03*
X0098257Y0086839D03*
X0098257Y0093926D03*
D13*
X0154359Y0139595D03*
X0160265Y0139595D03*
D14*
X0024590Y0029741D03*
X0032070Y0056906D03*
X0061204Y0029741D03*
D15*
X0077149Y0046276D03*
D16*
X0021046Y0056906D03*
D17*
X0110087Y0074056D03*
X0110087Y0076024D03*
X0110087Y0077993D03*
X0110087Y0079961D03*
X0110087Y0081930D03*
X0124654Y0081930D03*
X0124654Y0079961D03*
X0124654Y0077993D03*
X0124654Y0076024D03*
X0124654Y0074056D03*
D18*
X0121308Y0070709D03*
X0119339Y0070709D03*
X0117371Y0070709D03*
X0115402Y0070709D03*
X0113434Y0070709D03*
X0113434Y0085276D03*
X0115402Y0085276D03*
X0117371Y0085276D03*
X0119339Y0085276D03*
X0121308Y0085276D03*
D19*
X0118239Y0079795D02*
X0118618Y0079557D01*
X0118935Y0079240D01*
X0119173Y0078861D01*
X0119321Y0078438D01*
X0119371Y0077993D01*
X0119321Y0077548D01*
X0119173Y0077125D01*
X0118935Y0076746D01*
X0118618Y0076429D01*
X0118239Y0076191D01*
X0117816Y0076043D01*
X0117371Y0075993D01*
X0116926Y0076043D01*
X0116503Y0076191D01*
X0116124Y0076429D01*
X0115807Y0076746D01*
X0115569Y0077125D01*
X0115421Y0077548D01*
X0115371Y0077993D01*
X0115421Y0078438D01*
X0115569Y0078861D01*
X0115807Y0079240D01*
X0116124Y0079557D01*
X0116503Y0079795D01*
X0116926Y0079943D01*
X0117371Y0079993D01*
X0117816Y0079943D01*
X0118239Y0079795D01*
X0118499Y0079631D02*
X0116243Y0079631D01*
X0115740Y0079133D02*
X0119002Y0079133D01*
X0119252Y0078634D02*
X0115490Y0078634D01*
X0115387Y0078136D02*
X0119355Y0078136D01*
X0119331Y0077637D02*
X0115411Y0077637D01*
X0115564Y0077139D02*
X0119178Y0077139D01*
X0118829Y0076640D02*
X0115913Y0076640D01*
X0116644Y0076142D02*
X0118097Y0076142D01*
M02*
