G75*
%MOIN*%
%OFA0B0*%
%FSLAX25Y25*%
%IPPOS*%
%LPD*%
%AMOC8*
5,1,8,0,0,1.08239X$1,22.5*
%
%ADD10R,0.04737X0.05131*%
%ADD11R,0.05131X0.04737*%
%ADD12R,0.05524X0.03950*%
%ADD13R,0.03950X0.03950*%
%ADD14C,0.08200*%
%ADD15R,0.08674X0.10643*%
%ADD16R,0.10643X0.08674*%
%ADD17R,0.05524X0.10643*%
%ADD18C,0.08674*%
%ADD19R,0.03300X0.05800*%
%ADD20C,0.13800*%
%ADD21R,0.02769X0.01784*%
%ADD22R,0.01784X0.02769*%
%ADD23C,0.01064*%
%ADD24C,0.05156*%
D10*
X0117942Y0043729D03*
X0117942Y0050422D03*
X0145501Y0057509D03*
X0145501Y0064202D03*
X0161249Y0048454D03*
X0161249Y0041761D03*
X0155343Y0085068D03*
X0155343Y0091761D03*
X0031328Y0102784D03*
X0031328Y0109477D03*
D11*
X0045698Y0110068D03*
X0052391Y0110068D03*
X0059477Y0110068D03*
X0066170Y0110068D03*
X0066170Y0100225D03*
X0059477Y0100225D03*
X0052391Y0100225D03*
X0045698Y0100225D03*
X0045698Y0086446D03*
X0052391Y0086446D03*
X0073257Y0100225D03*
X0079950Y0100225D03*
X0090973Y0100225D03*
X0097666Y0100225D03*
X0097666Y0110068D03*
X0090973Y0110068D03*
X0090973Y0119910D03*
X0097666Y0119910D03*
X0108712Y0119910D03*
X0115405Y0119910D03*
X0115518Y0129753D03*
X0108825Y0129753D03*
X0108690Y0139595D03*
X0115383Y0139595D03*
X0115383Y0151406D03*
X0108690Y0151406D03*
X0167745Y0139595D03*
X0174438Y0139595D03*
X0146859Y0099795D03*
X0140166Y0099795D03*
X0140186Y0092351D03*
X0146879Y0092351D03*
X0144910Y0051013D03*
X0138217Y0051013D03*
X0137036Y0043139D03*
X0130343Y0043139D03*
X0093729Y0070698D03*
X0087036Y0070698D03*
X0087333Y0059932D03*
X0080640Y0059932D03*
D12*
X0108099Y0050619D03*
X0108099Y0043532D03*
X0098257Y0086839D03*
X0098257Y0093926D03*
D13*
X0154359Y0139595D03*
X0160265Y0139595D03*
D14*
X0167107Y0119930D03*
X0167107Y0109930D03*
X0167107Y0099930D03*
X0167107Y0089930D03*
X0167107Y0079930D03*
X0167107Y0069930D03*
X0023454Y0076603D03*
X0023454Y0086603D03*
X0023454Y0096603D03*
D15*
X0032070Y0056906D03*
X0024590Y0029741D03*
X0061204Y0029741D03*
D16*
X0077149Y0046276D03*
D17*
X0021046Y0056906D03*
D18*
X0028920Y0043324D03*
X0056479Y0043324D03*
D19*
X0141532Y0139595D03*
X0145532Y0139595D03*
D20*
X0013611Y0013611D03*
X0013611Y0159280D03*
X0194713Y0159280D03*
X0194713Y0013611D03*
D21*
X0124654Y0074056D03*
X0124654Y0076024D03*
X0124654Y0077993D03*
X0124654Y0079961D03*
X0124654Y0081930D03*
X0110087Y0081930D03*
X0110087Y0079961D03*
X0110087Y0077993D03*
X0110087Y0076024D03*
X0110087Y0074056D03*
D22*
X0113434Y0070709D03*
X0115402Y0070709D03*
X0117371Y0070709D03*
X0119339Y0070709D03*
X0121308Y0070709D03*
X0121308Y0085276D03*
X0119339Y0085276D03*
X0117371Y0085276D03*
X0115402Y0085276D03*
X0113434Y0085276D03*
D23*
X0112582Y0073204D02*
X0122160Y0073204D01*
X0112582Y0073204D02*
X0112582Y0082782D01*
X0122160Y0082782D01*
X0122160Y0073204D01*
X0122160Y0074267D02*
X0112582Y0074267D01*
X0112582Y0075330D02*
X0122160Y0075330D01*
X0122160Y0076393D02*
X0112582Y0076393D01*
X0112582Y0077456D02*
X0122160Y0077456D01*
X0122160Y0078519D02*
X0112582Y0078519D01*
X0112582Y0079582D02*
X0122160Y0079582D01*
X0122160Y0080645D02*
X0112582Y0080645D01*
X0112582Y0081708D02*
X0122160Y0081708D01*
X0122160Y0082771D02*
X0112582Y0082771D01*
D24*
X0145501Y0117942D03*
X0098257Y0137627D03*
X0066761Y0117942D03*
X0037233Y0086446D03*
X0110068Y0033296D03*
X0137627Y0033296D03*
X0196682Y0119910D03*
M02*
