%
M48
M72
T01C0.02756
T02C0.04000
T03C0.07874
T04C0.13000
%
T01
X37233Y86446
X66761Y117942
X98257Y137627
X145501Y117942
X196682Y119910
X137627Y33296
X110068Y33296
T02
X167107Y69930
X167107Y79930
X167107Y89930
X167107Y99930
X167107Y109930
X167107Y119930
X23454Y96603
X23454Y86603
X23454Y76603
T03
X28920Y43324
X56479Y43324
T04
X13611Y13611
X13611Y159280
X194713Y159280
X194713Y13611
M30
