G75*
%MOIN*%
%OFA0B0*%
%FSLAX25Y25*%
%IPPOS*%
%LPD*%
%AMOC8*
5,1,8,0,0,1.08239X$1,22.5*
%
%ADD10C,0.01600*%
%ADD11R,0.03937X0.04331*%
%ADD12R,0.04331X0.03937*%
%ADD13R,0.04724X0.03150*%
%ADD14R,0.03150X0.03150*%
%ADD15C,0.07400*%
%ADD16R,0.07874X0.09843*%
%ADD17R,0.09843X0.07874*%
%ADD18R,0.04724X0.09843*%
%ADD19C,0.00000*%
%ADD20C,0.00800*%
%ADD21R,0.02500X0.05000*%
%ADD22R,0.01969X0.00984*%
%ADD23R,0.00984X0.01969*%
%ADD24C,0.00984*%
%ADD25C,0.01000*%
%ADD26C,0.04356*%
D10*
X0001800Y0001800D02*
X0001800Y0171091D01*
X0206524Y0171091D01*
X0206524Y0001800D01*
X0001800Y0001800D01*
X0018090Y0005400D02*
X0018879Y0005727D01*
X0021495Y0008343D01*
X0022911Y0011761D01*
X0022911Y0013424D01*
X0023553Y0012782D01*
X0024766Y0012280D01*
X0085134Y0012280D01*
X0086346Y0012782D01*
X0087275Y0013710D01*
X0087275Y0013710D01*
X0104063Y0030498D01*
X0104991Y0031427D01*
X0105223Y0031985D01*
X0105848Y0030476D01*
X0107248Y0029076D01*
X0109078Y0028318D01*
X0111058Y0028318D01*
X0112887Y0029076D01*
X0114288Y0030476D01*
X0114913Y0031985D01*
X0115144Y0031427D01*
X0121050Y0025521D01*
X0121978Y0024593D01*
X0123191Y0024091D01*
X0147535Y0024091D01*
X0148748Y0024593D01*
X0160950Y0036795D01*
X0163774Y0036795D01*
X0164803Y0037222D01*
X0165591Y0038009D01*
X0165778Y0038461D01*
X0170370Y0038461D01*
X0171583Y0038963D01*
X0189637Y0057017D01*
X0190139Y0058230D01*
X0190139Y0148126D01*
X0189637Y0149339D01*
X0188709Y0150267D01*
X0188709Y0150267D01*
X0174929Y0164046D01*
X0173716Y0164549D01*
X0099569Y0164549D01*
X0098356Y0164046D01*
X0082608Y0148298D01*
X0081680Y0147370D01*
X0081177Y0146157D01*
X0081177Y0125750D01*
X0081680Y0124537D01*
X0086008Y0120209D01*
X0086008Y0117385D01*
X0086434Y0116356D01*
X0087222Y0115568D01*
X0088251Y0115142D01*
X0093696Y0115142D01*
X0094320Y0115400D01*
X0094366Y0115381D01*
X0094366Y0114597D01*
X0094320Y0114578D01*
X0093696Y0114836D01*
X0088251Y0114836D01*
X0087222Y0114410D01*
X0086434Y0113622D01*
X0086008Y0112593D01*
X0086008Y0107542D01*
X0086434Y0106513D01*
X0087222Y0105725D01*
X0087673Y0105538D01*
X0087673Y0104754D01*
X0087222Y0104567D01*
X0086434Y0103780D01*
X0086329Y0103525D01*
X0084594Y0103525D01*
X0084489Y0103780D01*
X0083701Y0104567D01*
X0082672Y0104994D01*
X0077227Y0104994D01*
X0076603Y0104735D01*
X0076557Y0104754D01*
X0076557Y0123913D01*
X0076054Y0125126D01*
X0070598Y0130582D01*
X0069386Y0131084D01*
X0036577Y0131084D01*
X0035364Y0130582D01*
X0034435Y0129654D01*
X0005836Y0101054D01*
X0005400Y0100618D01*
X0005400Y0154801D01*
X0005727Y0154012D01*
X0008343Y0151396D01*
X0011761Y0149980D01*
X0015461Y0149980D01*
X0018879Y0151396D01*
X0021495Y0154012D01*
X0022911Y0157430D01*
X0022911Y0161130D01*
X0021495Y0164548D01*
X0018879Y0167164D01*
X0018090Y0167491D01*
X0190235Y0167491D01*
X0189445Y0167164D01*
X0186829Y0164548D01*
X0185413Y0161130D01*
X0185413Y0157430D01*
X0186829Y0154012D01*
X0189445Y0151396D01*
X0192863Y0149980D01*
X0196563Y0149980D01*
X0199981Y0151396D01*
X0202598Y0154012D01*
X0202924Y0154801D01*
X0202924Y0018090D01*
X0202598Y0018879D01*
X0199981Y0021495D01*
X0196563Y0022911D01*
X0192863Y0022911D01*
X0189445Y0021495D01*
X0186829Y0018879D01*
X0185413Y0015461D01*
X0185413Y0011761D01*
X0186829Y0008343D01*
X0189445Y0005727D01*
X0190235Y0005400D01*
X0018090Y0005400D01*
X0019600Y0006448D02*
X0188724Y0006448D01*
X0187125Y0008047D02*
X0021199Y0008047D01*
X0022035Y0009645D02*
X0186290Y0009645D01*
X0185628Y0011244D02*
X0022697Y0011244D01*
X0022911Y0012842D02*
X0023492Y0012842D01*
X0086407Y0012842D02*
X0185413Y0012842D01*
X0185413Y0014441D02*
X0088005Y0014441D01*
X0089604Y0016039D02*
X0185653Y0016039D01*
X0186315Y0017638D02*
X0091202Y0017638D01*
X0092801Y0019236D02*
X0187187Y0019236D01*
X0188785Y0020835D02*
X0094399Y0020835D01*
X0095998Y0022433D02*
X0191710Y0022433D01*
X0197716Y0022433D02*
X0202924Y0022433D01*
X0202924Y0020835D02*
X0200642Y0020835D01*
X0202240Y0019236D02*
X0202924Y0019236D01*
X0202924Y0024032D02*
X0097596Y0024032D01*
X0099195Y0025630D02*
X0120941Y0025630D01*
X0121050Y0025521D02*
X0121050Y0025521D01*
X0119342Y0027229D02*
X0100793Y0027229D01*
X0102392Y0028827D02*
X0107848Y0028827D01*
X0105898Y0030426D02*
X0103990Y0030426D01*
X0112287Y0028827D02*
X0117743Y0028827D01*
X0116145Y0030426D02*
X0114237Y0030426D01*
X0149785Y0025630D02*
X0202924Y0025630D01*
X0202924Y0027229D02*
X0151384Y0027229D01*
X0152982Y0028827D02*
X0202924Y0028827D01*
X0202924Y0030426D02*
X0154581Y0030426D01*
X0156180Y0032024D02*
X0202924Y0032024D01*
X0202924Y0033623D02*
X0157778Y0033623D01*
X0159377Y0035221D02*
X0202924Y0035221D01*
X0202924Y0036820D02*
X0163834Y0036820D01*
X0165761Y0038418D02*
X0202924Y0038418D01*
X0202924Y0040017D02*
X0172637Y0040017D01*
X0174235Y0041616D02*
X0202924Y0041616D01*
X0202924Y0043214D02*
X0175834Y0043214D01*
X0177432Y0044813D02*
X0202924Y0044813D01*
X0202924Y0046411D02*
X0179031Y0046411D01*
X0180629Y0048010D02*
X0202924Y0048010D01*
X0202924Y0049608D02*
X0182228Y0049608D01*
X0183826Y0051207D02*
X0202924Y0051207D01*
X0202924Y0052805D02*
X0185425Y0052805D01*
X0187023Y0054404D02*
X0202924Y0054404D01*
X0202924Y0056002D02*
X0188622Y0056002D01*
X0189879Y0057601D02*
X0202924Y0057601D01*
X0202924Y0059199D02*
X0190139Y0059199D01*
X0190139Y0060798D02*
X0202924Y0060798D01*
X0202924Y0062396D02*
X0190139Y0062396D01*
X0190139Y0063995D02*
X0202924Y0063995D01*
X0202924Y0065593D02*
X0190139Y0065593D01*
X0190139Y0067192D02*
X0202924Y0067192D01*
X0202924Y0068790D02*
X0190139Y0068790D01*
X0190139Y0070389D02*
X0202924Y0070389D01*
X0202924Y0071987D02*
X0190139Y0071987D01*
X0190139Y0073586D02*
X0202924Y0073586D01*
X0202924Y0075184D02*
X0190139Y0075184D01*
X0190139Y0076783D02*
X0202924Y0076783D01*
X0202924Y0078381D02*
X0190139Y0078381D01*
X0190139Y0079980D02*
X0202924Y0079980D01*
X0202924Y0081578D02*
X0190139Y0081578D01*
X0190139Y0083177D02*
X0202924Y0083177D01*
X0202924Y0084775D02*
X0190139Y0084775D01*
X0190139Y0086374D02*
X0202924Y0086374D01*
X0202924Y0087972D02*
X0190139Y0087972D01*
X0190139Y0089571D02*
X0202924Y0089571D01*
X0202924Y0091169D02*
X0190139Y0091169D01*
X0190139Y0092768D02*
X0202924Y0092768D01*
X0202924Y0094366D02*
X0190139Y0094366D01*
X0190139Y0095965D02*
X0202924Y0095965D01*
X0202924Y0097563D02*
X0190139Y0097563D01*
X0190139Y0099162D02*
X0202924Y0099162D01*
X0202924Y0100760D02*
X0190139Y0100760D01*
X0190139Y0102359D02*
X0202924Y0102359D01*
X0202924Y0103957D02*
X0190139Y0103957D01*
X0190139Y0105556D02*
X0202924Y0105556D01*
X0202924Y0107154D02*
X0190139Y0107154D01*
X0190139Y0108753D02*
X0202924Y0108753D01*
X0202924Y0110351D02*
X0190139Y0110351D01*
X0190139Y0111950D02*
X0202924Y0111950D01*
X0202924Y0113549D02*
X0190139Y0113549D01*
X0190139Y0115147D02*
X0202924Y0115147D01*
X0202924Y0116746D02*
X0190139Y0116746D01*
X0190139Y0118344D02*
X0202924Y0118344D01*
X0202924Y0119943D02*
X0190139Y0119943D01*
X0190139Y0121541D02*
X0202924Y0121541D01*
X0202924Y0123140D02*
X0190139Y0123140D01*
X0190139Y0124738D02*
X0202924Y0124738D01*
X0202924Y0126337D02*
X0190139Y0126337D01*
X0190139Y0127935D02*
X0202924Y0127935D01*
X0202924Y0129534D02*
X0190139Y0129534D01*
X0190139Y0131132D02*
X0202924Y0131132D01*
X0202924Y0132731D02*
X0190139Y0132731D01*
X0190139Y0134329D02*
X0202924Y0134329D01*
X0202924Y0135928D02*
X0190139Y0135928D01*
X0190139Y0137526D02*
X0202924Y0137526D01*
X0202924Y0139125D02*
X0190139Y0139125D01*
X0190139Y0140723D02*
X0202924Y0140723D01*
X0202924Y0142322D02*
X0190139Y0142322D01*
X0190139Y0143920D02*
X0202924Y0143920D01*
X0202924Y0145519D02*
X0190139Y0145519D01*
X0190139Y0147117D02*
X0202924Y0147117D01*
X0202924Y0148716D02*
X0189895Y0148716D01*
X0188661Y0150314D02*
X0192057Y0150314D01*
X0188929Y0151913D02*
X0187063Y0151913D01*
X0187330Y0153511D02*
X0185464Y0153511D01*
X0186375Y0155110D02*
X0183866Y0155110D01*
X0182267Y0156708D02*
X0185712Y0156708D01*
X0185413Y0158307D02*
X0180669Y0158307D01*
X0179070Y0159905D02*
X0185413Y0159905D01*
X0185568Y0161504D02*
X0177472Y0161504D01*
X0175873Y0163102D02*
X0186230Y0163102D01*
X0186982Y0164701D02*
X0021343Y0164701D01*
X0022094Y0163102D02*
X0097412Y0163102D01*
X0095813Y0161504D02*
X0022756Y0161504D01*
X0022911Y0159905D02*
X0094215Y0159905D01*
X0092616Y0158307D02*
X0022911Y0158307D01*
X0022612Y0156708D02*
X0091018Y0156708D01*
X0089419Y0155110D02*
X0021950Y0155110D01*
X0020994Y0153511D02*
X0087821Y0153511D01*
X0086222Y0151913D02*
X0019396Y0151913D01*
X0016267Y0150314D02*
X0084624Y0150314D01*
X0083025Y0148716D02*
X0005400Y0148716D01*
X0005400Y0150314D02*
X0010955Y0150314D01*
X0007826Y0151913D02*
X0005400Y0151913D01*
X0005400Y0153511D02*
X0006228Y0153511D01*
X0005400Y0147117D02*
X0081575Y0147117D01*
X0081177Y0145519D02*
X0005400Y0145519D01*
X0005400Y0143920D02*
X0081177Y0143920D01*
X0081177Y0142322D02*
X0005400Y0142322D01*
X0005400Y0140723D02*
X0081177Y0140723D01*
X0081177Y0139125D02*
X0005400Y0139125D01*
X0005400Y0137526D02*
X0081177Y0137526D01*
X0081177Y0135928D02*
X0005400Y0135928D01*
X0005400Y0134329D02*
X0081177Y0134329D01*
X0081177Y0132731D02*
X0005400Y0132731D01*
X0005400Y0131132D02*
X0081177Y0131132D01*
X0081177Y0129534D02*
X0071647Y0129534D01*
X0073245Y0127935D02*
X0081177Y0127935D01*
X0081177Y0126337D02*
X0074844Y0126337D01*
X0076215Y0124738D02*
X0081596Y0124738D01*
X0083077Y0123140D02*
X0076557Y0123140D01*
X0076557Y0121541D02*
X0084675Y0121541D01*
X0086008Y0119943D02*
X0076557Y0119943D01*
X0076557Y0118344D02*
X0086008Y0118344D01*
X0086273Y0116746D02*
X0076557Y0116746D01*
X0076557Y0115147D02*
X0088238Y0115147D01*
X0086404Y0113549D02*
X0076557Y0113549D01*
X0076557Y0111950D02*
X0086008Y0111950D01*
X0086008Y0110351D02*
X0076557Y0110351D01*
X0076557Y0108753D02*
X0086008Y0108753D01*
X0086168Y0107154D02*
X0076557Y0107154D01*
X0076557Y0105556D02*
X0087631Y0105556D01*
X0086612Y0103957D02*
X0084311Y0103957D01*
X0093708Y0115147D02*
X0094366Y0115147D01*
X0100966Y0115147D02*
X0112669Y0115147D01*
X0112682Y0115142D02*
X0116075Y0115142D01*
X0116610Y0114606D01*
X0116610Y0097655D01*
X0115678Y0096723D01*
X0102631Y0109769D01*
X0102631Y0112593D01*
X0102205Y0113622D01*
X0101418Y0114410D01*
X0100966Y0114597D01*
X0100966Y0115381D01*
X0101418Y0115568D01*
X0102205Y0116356D01*
X0102631Y0117385D01*
X0102631Y0122436D01*
X0102205Y0123465D01*
X0101418Y0124252D01*
X0100388Y0124679D01*
X0094944Y0124679D01*
X0094320Y0124420D01*
X0093696Y0124679D01*
X0090872Y0124679D01*
X0087777Y0127773D01*
X0087777Y0144134D01*
X0101592Y0157949D01*
X0171693Y0157949D01*
X0183539Y0146102D01*
X0183539Y0098350D01*
X0181878Y0100011D01*
X0182265Y0100946D01*
X0182265Y0135724D01*
X0181763Y0136937D01*
X0179403Y0139297D01*
X0179403Y0142121D01*
X0178977Y0143150D01*
X0178189Y0143938D01*
X0177160Y0144364D01*
X0171715Y0144364D01*
X0171091Y0144105D01*
X0170467Y0144364D01*
X0165023Y0144364D01*
X0163993Y0143938D01*
X0163513Y0143457D01*
X0163425Y0143544D01*
X0162396Y0143970D01*
X0158133Y0143970D01*
X0157312Y0143630D01*
X0156491Y0143970D01*
X0152227Y0143970D01*
X0151198Y0143544D01*
X0150550Y0142895D01*
X0149482Y0142895D01*
X0149156Y0143681D01*
X0148368Y0144469D01*
X0147339Y0144895D01*
X0143725Y0144895D01*
X0142696Y0144469D01*
X0142122Y0143895D01*
X0141532Y0143895D01*
X0140045Y0143895D01*
X0139588Y0143773D01*
X0139177Y0143536D01*
X0138842Y0143200D01*
X0138605Y0142790D01*
X0138482Y0142332D01*
X0138482Y0139595D01*
X0138482Y0136858D01*
X0138605Y0136400D01*
X0138842Y0135990D01*
X0139177Y0135655D01*
X0139588Y0135418D01*
X0140045Y0135295D01*
X0141532Y0135295D01*
X0141532Y0136395D01*
X0141532Y0136395D01*
X0141532Y0135295D01*
X0142122Y0135295D01*
X0142696Y0134722D01*
X0143725Y0134295D01*
X0147339Y0134295D01*
X0148368Y0134722D01*
X0149156Y0135509D01*
X0149482Y0136295D01*
X0150550Y0136295D01*
X0151198Y0135647D01*
X0152227Y0135220D01*
X0156491Y0135220D01*
X0157312Y0135561D01*
X0158133Y0135220D01*
X0162396Y0135220D01*
X0163425Y0135647D01*
X0163513Y0135734D01*
X0163993Y0135253D01*
X0165023Y0134827D01*
X0170467Y0134827D01*
X0171091Y0135085D01*
X0171715Y0134827D01*
X0174539Y0134827D01*
X0175665Y0133701D01*
X0175665Y0103230D01*
X0172776Y0103230D01*
X0172618Y0103612D01*
X0171300Y0104930D01*
X0172618Y0106248D01*
X0173607Y0108637D01*
X0173607Y0111223D01*
X0172618Y0113612D01*
X0170789Y0115440D01*
X0170468Y0115573D01*
X0170690Y0115734D01*
X0171302Y0116347D01*
X0171811Y0117047D01*
X0172204Y0117818D01*
X0172472Y0118642D01*
X0172607Y0119497D01*
X0172607Y0119730D01*
X0167307Y0119730D01*
X0167307Y0120130D01*
X0166907Y0120130D01*
X0166907Y0125430D01*
X0166674Y0125430D01*
X0165819Y0125294D01*
X0164996Y0125027D01*
X0164225Y0124634D01*
X0163524Y0124125D01*
X0162912Y0123513D01*
X0162403Y0122812D01*
X0162010Y0122041D01*
X0161743Y0121218D01*
X0161607Y0120362D01*
X0161607Y0120130D01*
X0166907Y0120130D01*
X0166907Y0119730D01*
X0161607Y0119730D01*
X0161607Y0119497D01*
X0161743Y0118642D01*
X0162010Y0117818D01*
X0162403Y0117047D01*
X0162912Y0116347D01*
X0163524Y0115734D01*
X0163746Y0115573D01*
X0163425Y0115440D01*
X0161597Y0113612D01*
X0160607Y0111223D01*
X0160607Y0108637D01*
X0160766Y0108255D01*
X0152546Y0100035D01*
X0152043Y0098822D01*
X0152043Y0096405D01*
X0151789Y0096300D01*
X0151406Y0095917D01*
X0150630Y0096693D01*
X0150484Y0096754D01*
X0150702Y0097132D01*
X0150825Y0097590D01*
X0150825Y0099611D01*
X0147044Y0099611D01*
X0147044Y0099979D01*
X0150825Y0099979D01*
X0150825Y0102001D01*
X0150702Y0102458D01*
X0150465Y0102869D01*
X0150130Y0103204D01*
X0149719Y0103441D01*
X0149262Y0103564D01*
X0147044Y0103564D01*
X0147044Y0099979D01*
X0146675Y0099979D01*
X0146675Y0103564D01*
X0144492Y0103564D01*
X0143918Y0104137D01*
X0142889Y0104564D01*
X0137444Y0104564D01*
X0136990Y0104375D01*
X0136990Y0104764D01*
X0145190Y0112964D01*
X0146491Y0112964D01*
X0148321Y0113722D01*
X0149721Y0115122D01*
X0150479Y0116952D01*
X0150479Y0118932D01*
X0149721Y0120762D01*
X0148321Y0122162D01*
X0146491Y0122920D01*
X0144511Y0122920D01*
X0142681Y0122162D01*
X0141281Y0120762D01*
X0140523Y0118932D01*
X0140523Y0117631D01*
X0130892Y0108000D01*
X0130390Y0106787D01*
X0130390Y0089781D01*
X0125839Y0085230D01*
X0123998Y0085230D01*
X0123979Y0085222D01*
X0123600Y0085222D01*
X0123600Y0085276D01*
X0122639Y0085276D01*
X0122639Y0085276D01*
X0123600Y0085276D01*
X0123600Y0086498D01*
X0123477Y0086955D01*
X0123240Y0087366D01*
X0122905Y0087701D01*
X0122639Y0087854D01*
X0122639Y0090413D01*
X0125717Y0093491D01*
X0126645Y0094419D01*
X0127147Y0095632D01*
X0127147Y0140252D01*
X0126645Y0141465D01*
X0125717Y0142393D01*
X0125717Y0142393D01*
X0119811Y0148298D01*
X0119131Y0148580D01*
X0119225Y0148743D01*
X0119348Y0149201D01*
X0119348Y0151222D01*
X0115567Y0151222D01*
X0115567Y0151591D01*
X0115198Y0151591D01*
X0115198Y0155175D01*
X0113015Y0155175D01*
X0112441Y0155749D01*
X0111412Y0156175D01*
X0105967Y0156175D01*
X0104938Y0155749D01*
X0104151Y0154961D01*
X0103724Y0153932D01*
X0103724Y0148881D01*
X0104151Y0147852D01*
X0104938Y0147064D01*
X0105390Y0146877D01*
X0105390Y0144124D01*
X0104938Y0143938D01*
X0104151Y0143150D01*
X0104045Y0142895D01*
X0099569Y0142895D01*
X0098867Y0142605D01*
X0097267Y0142605D01*
X0095437Y0141847D01*
X0094037Y0140447D01*
X0093279Y0138617D01*
X0093279Y0136637D01*
X0094037Y0134807D01*
X0095437Y0133407D01*
X0097267Y0132649D01*
X0099247Y0132649D01*
X0101076Y0133407D01*
X0102477Y0134807D01*
X0103093Y0136295D01*
X0104045Y0136295D01*
X0104151Y0136041D01*
X0104938Y0135253D01*
X0105967Y0134827D01*
X0111412Y0134827D01*
X0112036Y0135085D01*
X0112083Y0135066D01*
X0112083Y0134226D01*
X0111766Y0134095D01*
X0111193Y0133521D01*
X0109009Y0133521D01*
X0109009Y0129937D01*
X0108641Y0129937D01*
X0108641Y0133521D01*
X0106423Y0133521D01*
X0105965Y0133399D01*
X0105554Y0133162D01*
X0105219Y0132826D01*
X0104982Y0132416D01*
X0104860Y0131958D01*
X0104860Y0129937D01*
X0108641Y0129937D01*
X0108641Y0129568D01*
X0109009Y0129568D01*
X0109009Y0125984D01*
X0111193Y0125984D01*
X0111766Y0125411D01*
X0112218Y0125224D01*
X0112218Y0124486D01*
X0111653Y0124252D01*
X0111079Y0123679D01*
X0108896Y0123679D01*
X0108896Y0120095D01*
X0108527Y0120095D01*
X0108527Y0123679D01*
X0106309Y0123679D01*
X0105852Y0123556D01*
X0105441Y0123319D01*
X0105106Y0122984D01*
X0104869Y0122574D01*
X0104746Y0122116D01*
X0104746Y0120094D01*
X0108527Y0120094D01*
X0108527Y0119726D01*
X0104746Y0119726D01*
X0104746Y0117705D01*
X0104869Y0117247D01*
X0105106Y0116837D01*
X0105441Y0116501D01*
X0105852Y0116264D01*
X0106309Y0116142D01*
X0108527Y0116142D01*
X0108527Y0119726D01*
X0108896Y0119726D01*
X0108896Y0116142D01*
X0111079Y0116142D01*
X0111653Y0115568D01*
X0112682Y0115142D01*
X0116610Y0113549D02*
X0102236Y0113549D01*
X0102631Y0111950D02*
X0116610Y0111950D01*
X0116610Y0110351D02*
X0102631Y0110351D01*
X0103648Y0108753D02*
X0116610Y0108753D01*
X0116610Y0107154D02*
X0105246Y0107154D01*
X0106845Y0105556D02*
X0116610Y0105556D01*
X0116610Y0103957D02*
X0108443Y0103957D01*
X0110042Y0102359D02*
X0116610Y0102359D01*
X0116610Y0100760D02*
X0111640Y0100760D01*
X0113239Y0099162D02*
X0116610Y0099162D01*
X0116519Y0097563D02*
X0114837Y0097563D01*
X0123395Y0091169D02*
X0130390Y0091169D01*
X0130390Y0092768D02*
X0124994Y0092768D01*
X0126592Y0094366D02*
X0130390Y0094366D01*
X0130390Y0095965D02*
X0127147Y0095965D01*
X0127147Y0097563D02*
X0130390Y0097563D01*
X0130390Y0099162D02*
X0127147Y0099162D01*
X0127147Y0100760D02*
X0130390Y0100760D01*
X0130390Y0102359D02*
X0127147Y0102359D01*
X0127147Y0103957D02*
X0130390Y0103957D01*
X0130390Y0105556D02*
X0127147Y0105556D01*
X0127147Y0107154D02*
X0130542Y0107154D01*
X0131645Y0108753D02*
X0127147Y0108753D01*
X0127147Y0110351D02*
X0133244Y0110351D01*
X0134842Y0111950D02*
X0127147Y0111950D01*
X0127147Y0113549D02*
X0136441Y0113549D01*
X0138039Y0115147D02*
X0127147Y0115147D01*
X0127147Y0116746D02*
X0139638Y0116746D01*
X0140523Y0118344D02*
X0127147Y0118344D01*
X0127147Y0119943D02*
X0140941Y0119943D01*
X0142060Y0121541D02*
X0127147Y0121541D01*
X0127147Y0123140D02*
X0162641Y0123140D01*
X0161848Y0121541D02*
X0148941Y0121541D01*
X0150060Y0119943D02*
X0166907Y0119943D01*
X0167307Y0119943D02*
X0175665Y0119943D01*
X0175665Y0121541D02*
X0172367Y0121541D01*
X0172472Y0121218D02*
X0172204Y0122041D01*
X0171811Y0122812D01*
X0171302Y0123513D01*
X0170690Y0124125D01*
X0169990Y0124634D01*
X0169219Y0125027D01*
X0168395Y0125294D01*
X0167540Y0125430D01*
X0167307Y0125430D01*
X0167307Y0120130D01*
X0172607Y0120130D01*
X0172607Y0120362D01*
X0172472Y0121218D01*
X0171573Y0123140D02*
X0175665Y0123140D01*
X0175665Y0124738D02*
X0169785Y0124738D01*
X0167307Y0124738D02*
X0166907Y0124738D01*
X0166907Y0123140D02*
X0167307Y0123140D01*
X0167307Y0121541D02*
X0166907Y0121541D01*
X0164430Y0124738D02*
X0127147Y0124738D01*
X0127147Y0126337D02*
X0175665Y0126337D01*
X0175665Y0127935D02*
X0127147Y0127935D01*
X0127147Y0129534D02*
X0175665Y0129534D01*
X0175665Y0131132D02*
X0127147Y0131132D01*
X0127147Y0132731D02*
X0175665Y0132731D01*
X0175037Y0134329D02*
X0147421Y0134329D01*
X0149329Y0135928D02*
X0150917Y0135928D01*
X0143644Y0134329D02*
X0127147Y0134329D01*
X0127147Y0135928D02*
X0138904Y0135928D01*
X0138482Y0137526D02*
X0127147Y0137526D01*
X0127147Y0139125D02*
X0138482Y0139125D01*
X0138482Y0139595D02*
X0138832Y0139595D01*
X0138832Y0139595D01*
X0138482Y0139595D01*
X0138482Y0140723D02*
X0126952Y0140723D01*
X0125788Y0142322D02*
X0138482Y0142322D01*
X0141532Y0142795D02*
X0141532Y0143895D01*
X0141532Y0142795D01*
X0141532Y0142795D01*
X0142147Y0143920D02*
X0124189Y0143920D01*
X0122591Y0145519D02*
X0183539Y0145519D01*
X0183539Y0143920D02*
X0178206Y0143920D01*
X0179320Y0142322D02*
X0183539Y0142322D01*
X0183539Y0140723D02*
X0179403Y0140723D01*
X0179575Y0139125D02*
X0183539Y0139125D01*
X0183539Y0137526D02*
X0181174Y0137526D01*
X0182181Y0135928D02*
X0183539Y0135928D01*
X0183539Y0134329D02*
X0182265Y0134329D01*
X0182265Y0132731D02*
X0183539Y0132731D01*
X0183539Y0131132D02*
X0182265Y0131132D01*
X0182265Y0129534D02*
X0183539Y0129534D01*
X0183539Y0127935D02*
X0182265Y0127935D01*
X0182265Y0126337D02*
X0183539Y0126337D01*
X0183539Y0124738D02*
X0182265Y0124738D01*
X0182265Y0123140D02*
X0183539Y0123140D01*
X0183539Y0121541D02*
X0182265Y0121541D01*
X0182265Y0119943D02*
X0183539Y0119943D01*
X0183539Y0118344D02*
X0182265Y0118344D01*
X0182265Y0116746D02*
X0183539Y0116746D01*
X0183539Y0115147D02*
X0182265Y0115147D01*
X0182265Y0113549D02*
X0183539Y0113549D01*
X0183539Y0111950D02*
X0182265Y0111950D01*
X0182265Y0110351D02*
X0183539Y0110351D01*
X0183539Y0108753D02*
X0182265Y0108753D01*
X0182265Y0107154D02*
X0183539Y0107154D01*
X0183539Y0105556D02*
X0182265Y0105556D01*
X0182265Y0103957D02*
X0183539Y0103957D01*
X0183539Y0102359D02*
X0182265Y0102359D01*
X0182188Y0100760D02*
X0183539Y0100760D01*
X0183539Y0099162D02*
X0182727Y0099162D01*
X0175665Y0103957D02*
X0172272Y0103957D01*
X0171926Y0105556D02*
X0175665Y0105556D01*
X0175665Y0107154D02*
X0172993Y0107154D01*
X0173607Y0108753D02*
X0175665Y0108753D01*
X0175665Y0110351D02*
X0173607Y0110351D01*
X0173306Y0111950D02*
X0175665Y0111950D01*
X0175665Y0113549D02*
X0172644Y0113549D01*
X0171082Y0115147D02*
X0175665Y0115147D01*
X0175665Y0116746D02*
X0171592Y0116746D01*
X0172375Y0118344D02*
X0175665Y0118344D01*
X0163132Y0115147D02*
X0149731Y0115147D01*
X0150393Y0116746D02*
X0162622Y0116746D01*
X0161839Y0118344D02*
X0150479Y0118344D01*
X0147903Y0113549D02*
X0161571Y0113549D01*
X0160909Y0111950D02*
X0144176Y0111950D01*
X0142577Y0110351D02*
X0160607Y0110351D01*
X0160607Y0108753D02*
X0140979Y0108753D01*
X0139380Y0107154D02*
X0159665Y0107154D01*
X0158067Y0105556D02*
X0137782Y0105556D01*
X0144098Y0103957D02*
X0156468Y0103957D01*
X0154870Y0102359D02*
X0150729Y0102359D01*
X0150825Y0100760D02*
X0153271Y0100760D01*
X0152184Y0099162D02*
X0150825Y0099162D01*
X0150818Y0097563D02*
X0152043Y0097563D01*
X0151454Y0095965D02*
X0151359Y0095965D01*
X0147044Y0100760D02*
X0146675Y0100760D01*
X0146675Y0102359D02*
X0147044Y0102359D01*
X0130180Y0089571D02*
X0122639Y0089571D01*
X0122639Y0087972D02*
X0128581Y0087972D01*
X0126983Y0086374D02*
X0123600Y0086374D01*
X0108896Y0116746D02*
X0108527Y0116746D01*
X0108527Y0118344D02*
X0108896Y0118344D01*
X0108527Y0119943D02*
X0102631Y0119943D01*
X0102631Y0121541D02*
X0104746Y0121541D01*
X0105262Y0123140D02*
X0102340Y0123140D01*
X0105554Y0126344D02*
X0105965Y0126107D01*
X0106423Y0125984D01*
X0108641Y0125984D01*
X0108641Y0129568D01*
X0104860Y0129568D01*
X0104860Y0127547D01*
X0104982Y0127089D01*
X0105219Y0126679D01*
X0105554Y0126344D01*
X0105567Y0126337D02*
X0089214Y0126337D01*
X0087777Y0127935D02*
X0104860Y0127935D01*
X0104860Y0129534D02*
X0087777Y0129534D01*
X0087777Y0131132D02*
X0104860Y0131132D01*
X0105164Y0132731D02*
X0099444Y0132731D01*
X0097069Y0132731D02*
X0087777Y0132731D01*
X0087777Y0134329D02*
X0094514Y0134329D01*
X0093572Y0135928D02*
X0087777Y0135928D01*
X0087777Y0137526D02*
X0093279Y0137526D01*
X0093489Y0139125D02*
X0087777Y0139125D01*
X0087777Y0140723D02*
X0094313Y0140723D01*
X0096583Y0142322D02*
X0087777Y0142322D01*
X0087777Y0143920D02*
X0104921Y0143920D01*
X0105390Y0145519D02*
X0089162Y0145519D01*
X0090761Y0147117D02*
X0104885Y0147117D01*
X0103793Y0148716D02*
X0092359Y0148716D01*
X0093958Y0150314D02*
X0103724Y0150314D01*
X0103724Y0151913D02*
X0095556Y0151913D01*
X0097155Y0153511D02*
X0103724Y0153511D01*
X0104300Y0155110D02*
X0098753Y0155110D01*
X0100352Y0156708D02*
X0172933Y0156708D01*
X0174532Y0155110D02*
X0118028Y0155110D01*
X0118243Y0155052D02*
X0117785Y0155175D01*
X0115567Y0155175D01*
X0115567Y0151591D01*
X0119348Y0151591D01*
X0119348Y0153612D01*
X0119225Y0154070D01*
X0118988Y0154480D01*
X0118653Y0154815D01*
X0118243Y0155052D01*
X0119348Y0153511D02*
X0176130Y0153511D01*
X0177729Y0151913D02*
X0119348Y0151913D01*
X0119348Y0150314D02*
X0179327Y0150314D01*
X0180926Y0148716D02*
X0119210Y0148716D01*
X0120992Y0147117D02*
X0182525Y0147117D01*
X0197370Y0150314D02*
X0202924Y0150314D01*
X0202924Y0151913D02*
X0200498Y0151913D01*
X0202097Y0153511D02*
X0202924Y0153511D01*
X0188580Y0166299D02*
X0019744Y0166299D01*
X0005400Y0129534D02*
X0034316Y0129534D01*
X0034435Y0129654D02*
X0034435Y0129654D01*
X0032717Y0127935D02*
X0005400Y0127935D01*
X0005400Y0126337D02*
X0031119Y0126337D01*
X0029520Y0124738D02*
X0005400Y0124738D01*
X0005400Y0123140D02*
X0027922Y0123140D01*
X0026323Y0121541D02*
X0005400Y0121541D01*
X0005400Y0119943D02*
X0024724Y0119943D01*
X0023126Y0118344D02*
X0005400Y0118344D01*
X0005400Y0116746D02*
X0021527Y0116746D01*
X0019929Y0115147D02*
X0005400Y0115147D01*
X0005400Y0113549D02*
X0018330Y0113549D01*
X0016732Y0111950D02*
X0005400Y0111950D01*
X0005400Y0110351D02*
X0015133Y0110351D01*
X0013535Y0108753D02*
X0005400Y0108753D01*
X0005400Y0107154D02*
X0011936Y0107154D01*
X0010338Y0105556D02*
X0005400Y0105556D01*
X0005400Y0103957D02*
X0008739Y0103957D01*
X0007141Y0102359D02*
X0005400Y0102359D01*
X0005836Y0101054D02*
X0005836Y0101054D01*
X0005542Y0100760D02*
X0005400Y0100760D01*
X0090812Y0124738D02*
X0112218Y0124738D01*
X0109009Y0126337D02*
X0108641Y0126337D01*
X0108641Y0127935D02*
X0109009Y0127935D01*
X0109009Y0129534D02*
X0108641Y0129534D01*
X0108641Y0131132D02*
X0109009Y0131132D01*
X0109009Y0132731D02*
X0108641Y0132731D01*
X0112083Y0134329D02*
X0101999Y0134329D01*
X0102941Y0135928D02*
X0104264Y0135928D01*
X0108527Y0123140D02*
X0108896Y0123140D01*
X0108896Y0121541D02*
X0108527Y0121541D01*
X0104746Y0118344D02*
X0102631Y0118344D01*
X0102367Y0116746D02*
X0105197Y0116746D01*
X0141564Y0133690D02*
X0141564Y0139595D01*
X0141532Y0139595D01*
X0141532Y0145469D01*
X0148917Y0143920D02*
X0152107Y0143920D01*
X0156611Y0143920D02*
X0158012Y0143920D01*
X0162517Y0143920D02*
X0163976Y0143920D01*
X0141532Y0135928D02*
X0141532Y0135928D01*
X0115567Y0151913D02*
X0115198Y0151913D01*
X0115198Y0153511D02*
X0115567Y0153511D01*
X0115567Y0155110D02*
X0115198Y0155110D01*
D11*
X0155343Y0091761D03*
X0155343Y0085068D03*
X0145501Y0064202D03*
X0145501Y0057509D03*
X0161249Y0048454D03*
X0161249Y0041761D03*
X0117942Y0043729D03*
X0117942Y0050422D03*
X0031328Y0102784D03*
X0031328Y0109477D03*
D12*
X0045698Y0110068D03*
X0052391Y0110068D03*
X0059477Y0110068D03*
X0066170Y0110068D03*
X0066170Y0100225D03*
X0059477Y0100225D03*
X0052391Y0100225D03*
X0045698Y0100225D03*
X0045698Y0086446D03*
X0052391Y0086446D03*
X0073257Y0100225D03*
X0079950Y0100225D03*
X0090973Y0100225D03*
X0097666Y0100225D03*
X0097666Y0110068D03*
X0090973Y0110068D03*
X0090973Y0119910D03*
X0097666Y0119910D03*
X0108712Y0119910D03*
X0115405Y0119910D03*
X0115518Y0129753D03*
X0108825Y0129753D03*
X0108690Y0139595D03*
X0115383Y0139595D03*
X0115383Y0151406D03*
X0108690Y0151406D03*
X0167745Y0139595D03*
X0174438Y0139595D03*
X0146859Y0099795D03*
X0140166Y0099795D03*
X0140186Y0092351D03*
X0146879Y0092351D03*
X0144910Y0051013D03*
X0138217Y0051013D03*
X0137036Y0043139D03*
X0130343Y0043139D03*
X0093729Y0070698D03*
X0087036Y0070698D03*
X0087333Y0059932D03*
X0080640Y0059932D03*
D13*
X0108099Y0050619D03*
X0108099Y0043532D03*
X0098257Y0086839D03*
X0098257Y0093926D03*
D14*
X0154359Y0139595D03*
X0160265Y0139595D03*
D15*
X0167107Y0119930D03*
X0167107Y0109930D03*
X0167107Y0099930D03*
X0167107Y0089930D03*
X0167107Y0079930D03*
X0167107Y0069930D03*
X0023454Y0076603D03*
X0023454Y0086603D03*
X0023454Y0096603D03*
D16*
X0032070Y0056906D03*
X0024590Y0029741D03*
X0061204Y0029741D03*
D17*
X0077149Y0046276D03*
D18*
X0021046Y0056906D03*
D19*
X0024983Y0043324D02*
X0024985Y0043449D01*
X0024991Y0043574D01*
X0025001Y0043698D01*
X0025015Y0043822D01*
X0025032Y0043946D01*
X0025054Y0044069D01*
X0025080Y0044191D01*
X0025109Y0044313D01*
X0025142Y0044433D01*
X0025180Y0044552D01*
X0025220Y0044671D01*
X0025265Y0044787D01*
X0025313Y0044902D01*
X0025365Y0045016D01*
X0025421Y0045128D01*
X0025480Y0045238D01*
X0025542Y0045346D01*
X0025608Y0045453D01*
X0025677Y0045557D01*
X0025750Y0045658D01*
X0025825Y0045758D01*
X0025904Y0045855D01*
X0025986Y0045949D01*
X0026071Y0046041D01*
X0026158Y0046130D01*
X0026249Y0046216D01*
X0026342Y0046299D01*
X0026438Y0046380D01*
X0026536Y0046457D01*
X0026636Y0046531D01*
X0026739Y0046602D01*
X0026844Y0046669D01*
X0026952Y0046734D01*
X0027061Y0046794D01*
X0027172Y0046852D01*
X0027285Y0046905D01*
X0027399Y0046955D01*
X0027515Y0047002D01*
X0027632Y0047044D01*
X0027751Y0047083D01*
X0027871Y0047119D01*
X0027992Y0047150D01*
X0028114Y0047178D01*
X0028236Y0047201D01*
X0028360Y0047221D01*
X0028484Y0047237D01*
X0028608Y0047249D01*
X0028733Y0047257D01*
X0028858Y0047261D01*
X0028982Y0047261D01*
X0029107Y0047257D01*
X0029232Y0047249D01*
X0029356Y0047237D01*
X0029480Y0047221D01*
X0029604Y0047201D01*
X0029726Y0047178D01*
X0029848Y0047150D01*
X0029969Y0047119D01*
X0030089Y0047083D01*
X0030208Y0047044D01*
X0030325Y0047002D01*
X0030441Y0046955D01*
X0030555Y0046905D01*
X0030668Y0046852D01*
X0030779Y0046794D01*
X0030889Y0046734D01*
X0030996Y0046669D01*
X0031101Y0046602D01*
X0031204Y0046531D01*
X0031304Y0046457D01*
X0031402Y0046380D01*
X0031498Y0046299D01*
X0031591Y0046216D01*
X0031682Y0046130D01*
X0031769Y0046041D01*
X0031854Y0045949D01*
X0031936Y0045855D01*
X0032015Y0045758D01*
X0032090Y0045658D01*
X0032163Y0045557D01*
X0032232Y0045453D01*
X0032298Y0045346D01*
X0032360Y0045238D01*
X0032419Y0045128D01*
X0032475Y0045016D01*
X0032527Y0044902D01*
X0032575Y0044787D01*
X0032620Y0044671D01*
X0032660Y0044552D01*
X0032698Y0044433D01*
X0032731Y0044313D01*
X0032760Y0044191D01*
X0032786Y0044069D01*
X0032808Y0043946D01*
X0032825Y0043822D01*
X0032839Y0043698D01*
X0032849Y0043574D01*
X0032855Y0043449D01*
X0032857Y0043324D01*
X0032855Y0043199D01*
X0032849Y0043074D01*
X0032839Y0042950D01*
X0032825Y0042826D01*
X0032808Y0042702D01*
X0032786Y0042579D01*
X0032760Y0042457D01*
X0032731Y0042335D01*
X0032698Y0042215D01*
X0032660Y0042096D01*
X0032620Y0041977D01*
X0032575Y0041861D01*
X0032527Y0041746D01*
X0032475Y0041632D01*
X0032419Y0041520D01*
X0032360Y0041410D01*
X0032298Y0041302D01*
X0032232Y0041195D01*
X0032163Y0041091D01*
X0032090Y0040990D01*
X0032015Y0040890D01*
X0031936Y0040793D01*
X0031854Y0040699D01*
X0031769Y0040607D01*
X0031682Y0040518D01*
X0031591Y0040432D01*
X0031498Y0040349D01*
X0031402Y0040268D01*
X0031304Y0040191D01*
X0031204Y0040117D01*
X0031101Y0040046D01*
X0030996Y0039979D01*
X0030888Y0039914D01*
X0030779Y0039854D01*
X0030668Y0039796D01*
X0030555Y0039743D01*
X0030441Y0039693D01*
X0030325Y0039646D01*
X0030208Y0039604D01*
X0030089Y0039565D01*
X0029969Y0039529D01*
X0029848Y0039498D01*
X0029726Y0039470D01*
X0029604Y0039447D01*
X0029480Y0039427D01*
X0029356Y0039411D01*
X0029232Y0039399D01*
X0029107Y0039391D01*
X0028982Y0039387D01*
X0028858Y0039387D01*
X0028733Y0039391D01*
X0028608Y0039399D01*
X0028484Y0039411D01*
X0028360Y0039427D01*
X0028236Y0039447D01*
X0028114Y0039470D01*
X0027992Y0039498D01*
X0027871Y0039529D01*
X0027751Y0039565D01*
X0027632Y0039604D01*
X0027515Y0039646D01*
X0027399Y0039693D01*
X0027285Y0039743D01*
X0027172Y0039796D01*
X0027061Y0039854D01*
X0026951Y0039914D01*
X0026844Y0039979D01*
X0026739Y0040046D01*
X0026636Y0040117D01*
X0026536Y0040191D01*
X0026438Y0040268D01*
X0026342Y0040349D01*
X0026249Y0040432D01*
X0026158Y0040518D01*
X0026071Y0040607D01*
X0025986Y0040699D01*
X0025904Y0040793D01*
X0025825Y0040890D01*
X0025750Y0040990D01*
X0025677Y0041091D01*
X0025608Y0041195D01*
X0025542Y0041302D01*
X0025480Y0041410D01*
X0025421Y0041520D01*
X0025365Y0041632D01*
X0025313Y0041746D01*
X0025265Y0041861D01*
X0025220Y0041977D01*
X0025180Y0042096D01*
X0025142Y0042215D01*
X0025109Y0042335D01*
X0025080Y0042457D01*
X0025054Y0042579D01*
X0025032Y0042702D01*
X0025015Y0042826D01*
X0025001Y0042950D01*
X0024991Y0043074D01*
X0024985Y0043199D01*
X0024983Y0043324D01*
X0052542Y0043324D02*
X0052544Y0043449D01*
X0052550Y0043574D01*
X0052560Y0043698D01*
X0052574Y0043822D01*
X0052591Y0043946D01*
X0052613Y0044069D01*
X0052639Y0044191D01*
X0052668Y0044313D01*
X0052701Y0044433D01*
X0052739Y0044552D01*
X0052779Y0044671D01*
X0052824Y0044787D01*
X0052872Y0044902D01*
X0052924Y0045016D01*
X0052980Y0045128D01*
X0053039Y0045238D01*
X0053101Y0045346D01*
X0053167Y0045453D01*
X0053236Y0045557D01*
X0053309Y0045658D01*
X0053384Y0045758D01*
X0053463Y0045855D01*
X0053545Y0045949D01*
X0053630Y0046041D01*
X0053717Y0046130D01*
X0053808Y0046216D01*
X0053901Y0046299D01*
X0053997Y0046380D01*
X0054095Y0046457D01*
X0054195Y0046531D01*
X0054298Y0046602D01*
X0054403Y0046669D01*
X0054511Y0046734D01*
X0054620Y0046794D01*
X0054731Y0046852D01*
X0054844Y0046905D01*
X0054958Y0046955D01*
X0055074Y0047002D01*
X0055191Y0047044D01*
X0055310Y0047083D01*
X0055430Y0047119D01*
X0055551Y0047150D01*
X0055673Y0047178D01*
X0055795Y0047201D01*
X0055919Y0047221D01*
X0056043Y0047237D01*
X0056167Y0047249D01*
X0056292Y0047257D01*
X0056417Y0047261D01*
X0056541Y0047261D01*
X0056666Y0047257D01*
X0056791Y0047249D01*
X0056915Y0047237D01*
X0057039Y0047221D01*
X0057163Y0047201D01*
X0057285Y0047178D01*
X0057407Y0047150D01*
X0057528Y0047119D01*
X0057648Y0047083D01*
X0057767Y0047044D01*
X0057884Y0047002D01*
X0058000Y0046955D01*
X0058114Y0046905D01*
X0058227Y0046852D01*
X0058338Y0046794D01*
X0058448Y0046734D01*
X0058555Y0046669D01*
X0058660Y0046602D01*
X0058763Y0046531D01*
X0058863Y0046457D01*
X0058961Y0046380D01*
X0059057Y0046299D01*
X0059150Y0046216D01*
X0059241Y0046130D01*
X0059328Y0046041D01*
X0059413Y0045949D01*
X0059495Y0045855D01*
X0059574Y0045758D01*
X0059649Y0045658D01*
X0059722Y0045557D01*
X0059791Y0045453D01*
X0059857Y0045346D01*
X0059919Y0045238D01*
X0059978Y0045128D01*
X0060034Y0045016D01*
X0060086Y0044902D01*
X0060134Y0044787D01*
X0060179Y0044671D01*
X0060219Y0044552D01*
X0060257Y0044433D01*
X0060290Y0044313D01*
X0060319Y0044191D01*
X0060345Y0044069D01*
X0060367Y0043946D01*
X0060384Y0043822D01*
X0060398Y0043698D01*
X0060408Y0043574D01*
X0060414Y0043449D01*
X0060416Y0043324D01*
X0060414Y0043199D01*
X0060408Y0043074D01*
X0060398Y0042950D01*
X0060384Y0042826D01*
X0060367Y0042702D01*
X0060345Y0042579D01*
X0060319Y0042457D01*
X0060290Y0042335D01*
X0060257Y0042215D01*
X0060219Y0042096D01*
X0060179Y0041977D01*
X0060134Y0041861D01*
X0060086Y0041746D01*
X0060034Y0041632D01*
X0059978Y0041520D01*
X0059919Y0041410D01*
X0059857Y0041302D01*
X0059791Y0041195D01*
X0059722Y0041091D01*
X0059649Y0040990D01*
X0059574Y0040890D01*
X0059495Y0040793D01*
X0059413Y0040699D01*
X0059328Y0040607D01*
X0059241Y0040518D01*
X0059150Y0040432D01*
X0059057Y0040349D01*
X0058961Y0040268D01*
X0058863Y0040191D01*
X0058763Y0040117D01*
X0058660Y0040046D01*
X0058555Y0039979D01*
X0058447Y0039914D01*
X0058338Y0039854D01*
X0058227Y0039796D01*
X0058114Y0039743D01*
X0058000Y0039693D01*
X0057884Y0039646D01*
X0057767Y0039604D01*
X0057648Y0039565D01*
X0057528Y0039529D01*
X0057407Y0039498D01*
X0057285Y0039470D01*
X0057163Y0039447D01*
X0057039Y0039427D01*
X0056915Y0039411D01*
X0056791Y0039399D01*
X0056666Y0039391D01*
X0056541Y0039387D01*
X0056417Y0039387D01*
X0056292Y0039391D01*
X0056167Y0039399D01*
X0056043Y0039411D01*
X0055919Y0039427D01*
X0055795Y0039447D01*
X0055673Y0039470D01*
X0055551Y0039498D01*
X0055430Y0039529D01*
X0055310Y0039565D01*
X0055191Y0039604D01*
X0055074Y0039646D01*
X0054958Y0039693D01*
X0054844Y0039743D01*
X0054731Y0039796D01*
X0054620Y0039854D01*
X0054510Y0039914D01*
X0054403Y0039979D01*
X0054298Y0040046D01*
X0054195Y0040117D01*
X0054095Y0040191D01*
X0053997Y0040268D01*
X0053901Y0040349D01*
X0053808Y0040432D01*
X0053717Y0040518D01*
X0053630Y0040607D01*
X0053545Y0040699D01*
X0053463Y0040793D01*
X0053384Y0040890D01*
X0053309Y0040990D01*
X0053236Y0041091D01*
X0053167Y0041195D01*
X0053101Y0041302D01*
X0053039Y0041410D01*
X0052980Y0041520D01*
X0052924Y0041632D01*
X0052872Y0041746D01*
X0052824Y0041861D01*
X0052779Y0041977D01*
X0052739Y0042096D01*
X0052701Y0042215D01*
X0052668Y0042335D01*
X0052639Y0042457D01*
X0052613Y0042579D01*
X0052591Y0042702D01*
X0052574Y0042826D01*
X0052560Y0042950D01*
X0052550Y0043074D01*
X0052544Y0043199D01*
X0052542Y0043324D01*
X0007111Y0013611D02*
X0007113Y0013772D01*
X0007119Y0013932D01*
X0007129Y0014093D01*
X0007143Y0014253D01*
X0007161Y0014413D01*
X0007182Y0014572D01*
X0007208Y0014731D01*
X0007238Y0014889D01*
X0007271Y0015046D01*
X0007309Y0015203D01*
X0007350Y0015358D01*
X0007395Y0015512D01*
X0007444Y0015665D01*
X0007497Y0015817D01*
X0007553Y0015968D01*
X0007614Y0016117D01*
X0007677Y0016265D01*
X0007745Y0016411D01*
X0007816Y0016555D01*
X0007890Y0016697D01*
X0007968Y0016838D01*
X0008050Y0016976D01*
X0008135Y0017113D01*
X0008223Y0017247D01*
X0008315Y0017379D01*
X0008410Y0017509D01*
X0008508Y0017637D01*
X0008609Y0017762D01*
X0008713Y0017884D01*
X0008820Y0018004D01*
X0008930Y0018121D01*
X0009043Y0018236D01*
X0009159Y0018347D01*
X0009278Y0018456D01*
X0009399Y0018561D01*
X0009523Y0018664D01*
X0009649Y0018764D01*
X0009777Y0018860D01*
X0009908Y0018953D01*
X0010042Y0019043D01*
X0010177Y0019130D01*
X0010315Y0019213D01*
X0010454Y0019293D01*
X0010596Y0019369D01*
X0010739Y0019442D01*
X0010884Y0019511D01*
X0011031Y0019577D01*
X0011179Y0019639D01*
X0011329Y0019697D01*
X0011480Y0019752D01*
X0011633Y0019803D01*
X0011787Y0019850D01*
X0011942Y0019893D01*
X0012098Y0019932D01*
X0012254Y0019968D01*
X0012412Y0019999D01*
X0012570Y0020027D01*
X0012729Y0020051D01*
X0012889Y0020071D01*
X0013049Y0020087D01*
X0013209Y0020099D01*
X0013370Y0020107D01*
X0013531Y0020111D01*
X0013691Y0020111D01*
X0013852Y0020107D01*
X0014013Y0020099D01*
X0014173Y0020087D01*
X0014333Y0020071D01*
X0014493Y0020051D01*
X0014652Y0020027D01*
X0014810Y0019999D01*
X0014968Y0019968D01*
X0015124Y0019932D01*
X0015280Y0019893D01*
X0015435Y0019850D01*
X0015589Y0019803D01*
X0015742Y0019752D01*
X0015893Y0019697D01*
X0016043Y0019639D01*
X0016191Y0019577D01*
X0016338Y0019511D01*
X0016483Y0019442D01*
X0016626Y0019369D01*
X0016768Y0019293D01*
X0016907Y0019213D01*
X0017045Y0019130D01*
X0017180Y0019043D01*
X0017314Y0018953D01*
X0017445Y0018860D01*
X0017573Y0018764D01*
X0017699Y0018664D01*
X0017823Y0018561D01*
X0017944Y0018456D01*
X0018063Y0018347D01*
X0018179Y0018236D01*
X0018292Y0018121D01*
X0018402Y0018004D01*
X0018509Y0017884D01*
X0018613Y0017762D01*
X0018714Y0017637D01*
X0018812Y0017509D01*
X0018907Y0017379D01*
X0018999Y0017247D01*
X0019087Y0017113D01*
X0019172Y0016976D01*
X0019254Y0016838D01*
X0019332Y0016697D01*
X0019406Y0016555D01*
X0019477Y0016411D01*
X0019545Y0016265D01*
X0019608Y0016117D01*
X0019669Y0015968D01*
X0019725Y0015817D01*
X0019778Y0015665D01*
X0019827Y0015512D01*
X0019872Y0015358D01*
X0019913Y0015203D01*
X0019951Y0015046D01*
X0019984Y0014889D01*
X0020014Y0014731D01*
X0020040Y0014572D01*
X0020061Y0014413D01*
X0020079Y0014253D01*
X0020093Y0014093D01*
X0020103Y0013932D01*
X0020109Y0013772D01*
X0020111Y0013611D01*
X0020109Y0013450D01*
X0020103Y0013290D01*
X0020093Y0013129D01*
X0020079Y0012969D01*
X0020061Y0012809D01*
X0020040Y0012650D01*
X0020014Y0012491D01*
X0019984Y0012333D01*
X0019951Y0012176D01*
X0019913Y0012019D01*
X0019872Y0011864D01*
X0019827Y0011710D01*
X0019778Y0011557D01*
X0019725Y0011405D01*
X0019669Y0011254D01*
X0019608Y0011105D01*
X0019545Y0010957D01*
X0019477Y0010811D01*
X0019406Y0010667D01*
X0019332Y0010525D01*
X0019254Y0010384D01*
X0019172Y0010246D01*
X0019087Y0010109D01*
X0018999Y0009975D01*
X0018907Y0009843D01*
X0018812Y0009713D01*
X0018714Y0009585D01*
X0018613Y0009460D01*
X0018509Y0009338D01*
X0018402Y0009218D01*
X0018292Y0009101D01*
X0018179Y0008986D01*
X0018063Y0008875D01*
X0017944Y0008766D01*
X0017823Y0008661D01*
X0017699Y0008558D01*
X0017573Y0008458D01*
X0017445Y0008362D01*
X0017314Y0008269D01*
X0017180Y0008179D01*
X0017045Y0008092D01*
X0016907Y0008009D01*
X0016768Y0007929D01*
X0016626Y0007853D01*
X0016483Y0007780D01*
X0016338Y0007711D01*
X0016191Y0007645D01*
X0016043Y0007583D01*
X0015893Y0007525D01*
X0015742Y0007470D01*
X0015589Y0007419D01*
X0015435Y0007372D01*
X0015280Y0007329D01*
X0015124Y0007290D01*
X0014968Y0007254D01*
X0014810Y0007223D01*
X0014652Y0007195D01*
X0014493Y0007171D01*
X0014333Y0007151D01*
X0014173Y0007135D01*
X0014013Y0007123D01*
X0013852Y0007115D01*
X0013691Y0007111D01*
X0013531Y0007111D01*
X0013370Y0007115D01*
X0013209Y0007123D01*
X0013049Y0007135D01*
X0012889Y0007151D01*
X0012729Y0007171D01*
X0012570Y0007195D01*
X0012412Y0007223D01*
X0012254Y0007254D01*
X0012098Y0007290D01*
X0011942Y0007329D01*
X0011787Y0007372D01*
X0011633Y0007419D01*
X0011480Y0007470D01*
X0011329Y0007525D01*
X0011179Y0007583D01*
X0011031Y0007645D01*
X0010884Y0007711D01*
X0010739Y0007780D01*
X0010596Y0007853D01*
X0010454Y0007929D01*
X0010315Y0008009D01*
X0010177Y0008092D01*
X0010042Y0008179D01*
X0009908Y0008269D01*
X0009777Y0008362D01*
X0009649Y0008458D01*
X0009523Y0008558D01*
X0009399Y0008661D01*
X0009278Y0008766D01*
X0009159Y0008875D01*
X0009043Y0008986D01*
X0008930Y0009101D01*
X0008820Y0009218D01*
X0008713Y0009338D01*
X0008609Y0009460D01*
X0008508Y0009585D01*
X0008410Y0009713D01*
X0008315Y0009843D01*
X0008223Y0009975D01*
X0008135Y0010109D01*
X0008050Y0010246D01*
X0007968Y0010384D01*
X0007890Y0010525D01*
X0007816Y0010667D01*
X0007745Y0010811D01*
X0007677Y0010957D01*
X0007614Y0011105D01*
X0007553Y0011254D01*
X0007497Y0011405D01*
X0007444Y0011557D01*
X0007395Y0011710D01*
X0007350Y0011864D01*
X0007309Y0012019D01*
X0007271Y0012176D01*
X0007238Y0012333D01*
X0007208Y0012491D01*
X0007182Y0012650D01*
X0007161Y0012809D01*
X0007143Y0012969D01*
X0007129Y0013129D01*
X0007119Y0013290D01*
X0007113Y0013450D01*
X0007111Y0013611D01*
X0007111Y0159280D02*
X0007113Y0159441D01*
X0007119Y0159601D01*
X0007129Y0159762D01*
X0007143Y0159922D01*
X0007161Y0160082D01*
X0007182Y0160241D01*
X0007208Y0160400D01*
X0007238Y0160558D01*
X0007271Y0160715D01*
X0007309Y0160872D01*
X0007350Y0161027D01*
X0007395Y0161181D01*
X0007444Y0161334D01*
X0007497Y0161486D01*
X0007553Y0161637D01*
X0007614Y0161786D01*
X0007677Y0161934D01*
X0007745Y0162080D01*
X0007816Y0162224D01*
X0007890Y0162366D01*
X0007968Y0162507D01*
X0008050Y0162645D01*
X0008135Y0162782D01*
X0008223Y0162916D01*
X0008315Y0163048D01*
X0008410Y0163178D01*
X0008508Y0163306D01*
X0008609Y0163431D01*
X0008713Y0163553D01*
X0008820Y0163673D01*
X0008930Y0163790D01*
X0009043Y0163905D01*
X0009159Y0164016D01*
X0009278Y0164125D01*
X0009399Y0164230D01*
X0009523Y0164333D01*
X0009649Y0164433D01*
X0009777Y0164529D01*
X0009908Y0164622D01*
X0010042Y0164712D01*
X0010177Y0164799D01*
X0010315Y0164882D01*
X0010454Y0164962D01*
X0010596Y0165038D01*
X0010739Y0165111D01*
X0010884Y0165180D01*
X0011031Y0165246D01*
X0011179Y0165308D01*
X0011329Y0165366D01*
X0011480Y0165421D01*
X0011633Y0165472D01*
X0011787Y0165519D01*
X0011942Y0165562D01*
X0012098Y0165601D01*
X0012254Y0165637D01*
X0012412Y0165668D01*
X0012570Y0165696D01*
X0012729Y0165720D01*
X0012889Y0165740D01*
X0013049Y0165756D01*
X0013209Y0165768D01*
X0013370Y0165776D01*
X0013531Y0165780D01*
X0013691Y0165780D01*
X0013852Y0165776D01*
X0014013Y0165768D01*
X0014173Y0165756D01*
X0014333Y0165740D01*
X0014493Y0165720D01*
X0014652Y0165696D01*
X0014810Y0165668D01*
X0014968Y0165637D01*
X0015124Y0165601D01*
X0015280Y0165562D01*
X0015435Y0165519D01*
X0015589Y0165472D01*
X0015742Y0165421D01*
X0015893Y0165366D01*
X0016043Y0165308D01*
X0016191Y0165246D01*
X0016338Y0165180D01*
X0016483Y0165111D01*
X0016626Y0165038D01*
X0016768Y0164962D01*
X0016907Y0164882D01*
X0017045Y0164799D01*
X0017180Y0164712D01*
X0017314Y0164622D01*
X0017445Y0164529D01*
X0017573Y0164433D01*
X0017699Y0164333D01*
X0017823Y0164230D01*
X0017944Y0164125D01*
X0018063Y0164016D01*
X0018179Y0163905D01*
X0018292Y0163790D01*
X0018402Y0163673D01*
X0018509Y0163553D01*
X0018613Y0163431D01*
X0018714Y0163306D01*
X0018812Y0163178D01*
X0018907Y0163048D01*
X0018999Y0162916D01*
X0019087Y0162782D01*
X0019172Y0162645D01*
X0019254Y0162507D01*
X0019332Y0162366D01*
X0019406Y0162224D01*
X0019477Y0162080D01*
X0019545Y0161934D01*
X0019608Y0161786D01*
X0019669Y0161637D01*
X0019725Y0161486D01*
X0019778Y0161334D01*
X0019827Y0161181D01*
X0019872Y0161027D01*
X0019913Y0160872D01*
X0019951Y0160715D01*
X0019984Y0160558D01*
X0020014Y0160400D01*
X0020040Y0160241D01*
X0020061Y0160082D01*
X0020079Y0159922D01*
X0020093Y0159762D01*
X0020103Y0159601D01*
X0020109Y0159441D01*
X0020111Y0159280D01*
X0020109Y0159119D01*
X0020103Y0158959D01*
X0020093Y0158798D01*
X0020079Y0158638D01*
X0020061Y0158478D01*
X0020040Y0158319D01*
X0020014Y0158160D01*
X0019984Y0158002D01*
X0019951Y0157845D01*
X0019913Y0157688D01*
X0019872Y0157533D01*
X0019827Y0157379D01*
X0019778Y0157226D01*
X0019725Y0157074D01*
X0019669Y0156923D01*
X0019608Y0156774D01*
X0019545Y0156626D01*
X0019477Y0156480D01*
X0019406Y0156336D01*
X0019332Y0156194D01*
X0019254Y0156053D01*
X0019172Y0155915D01*
X0019087Y0155778D01*
X0018999Y0155644D01*
X0018907Y0155512D01*
X0018812Y0155382D01*
X0018714Y0155254D01*
X0018613Y0155129D01*
X0018509Y0155007D01*
X0018402Y0154887D01*
X0018292Y0154770D01*
X0018179Y0154655D01*
X0018063Y0154544D01*
X0017944Y0154435D01*
X0017823Y0154330D01*
X0017699Y0154227D01*
X0017573Y0154127D01*
X0017445Y0154031D01*
X0017314Y0153938D01*
X0017180Y0153848D01*
X0017045Y0153761D01*
X0016907Y0153678D01*
X0016768Y0153598D01*
X0016626Y0153522D01*
X0016483Y0153449D01*
X0016338Y0153380D01*
X0016191Y0153314D01*
X0016043Y0153252D01*
X0015893Y0153194D01*
X0015742Y0153139D01*
X0015589Y0153088D01*
X0015435Y0153041D01*
X0015280Y0152998D01*
X0015124Y0152959D01*
X0014968Y0152923D01*
X0014810Y0152892D01*
X0014652Y0152864D01*
X0014493Y0152840D01*
X0014333Y0152820D01*
X0014173Y0152804D01*
X0014013Y0152792D01*
X0013852Y0152784D01*
X0013691Y0152780D01*
X0013531Y0152780D01*
X0013370Y0152784D01*
X0013209Y0152792D01*
X0013049Y0152804D01*
X0012889Y0152820D01*
X0012729Y0152840D01*
X0012570Y0152864D01*
X0012412Y0152892D01*
X0012254Y0152923D01*
X0012098Y0152959D01*
X0011942Y0152998D01*
X0011787Y0153041D01*
X0011633Y0153088D01*
X0011480Y0153139D01*
X0011329Y0153194D01*
X0011179Y0153252D01*
X0011031Y0153314D01*
X0010884Y0153380D01*
X0010739Y0153449D01*
X0010596Y0153522D01*
X0010454Y0153598D01*
X0010315Y0153678D01*
X0010177Y0153761D01*
X0010042Y0153848D01*
X0009908Y0153938D01*
X0009777Y0154031D01*
X0009649Y0154127D01*
X0009523Y0154227D01*
X0009399Y0154330D01*
X0009278Y0154435D01*
X0009159Y0154544D01*
X0009043Y0154655D01*
X0008930Y0154770D01*
X0008820Y0154887D01*
X0008713Y0155007D01*
X0008609Y0155129D01*
X0008508Y0155254D01*
X0008410Y0155382D01*
X0008315Y0155512D01*
X0008223Y0155644D01*
X0008135Y0155778D01*
X0008050Y0155915D01*
X0007968Y0156053D01*
X0007890Y0156194D01*
X0007816Y0156336D01*
X0007745Y0156480D01*
X0007677Y0156626D01*
X0007614Y0156774D01*
X0007553Y0156923D01*
X0007497Y0157074D01*
X0007444Y0157226D01*
X0007395Y0157379D01*
X0007350Y0157533D01*
X0007309Y0157688D01*
X0007271Y0157845D01*
X0007238Y0158002D01*
X0007208Y0158160D01*
X0007182Y0158319D01*
X0007161Y0158478D01*
X0007143Y0158638D01*
X0007129Y0158798D01*
X0007119Y0158959D01*
X0007113Y0159119D01*
X0007111Y0159280D01*
X0188213Y0159280D02*
X0188215Y0159441D01*
X0188221Y0159601D01*
X0188231Y0159762D01*
X0188245Y0159922D01*
X0188263Y0160082D01*
X0188284Y0160241D01*
X0188310Y0160400D01*
X0188340Y0160558D01*
X0188373Y0160715D01*
X0188411Y0160872D01*
X0188452Y0161027D01*
X0188497Y0161181D01*
X0188546Y0161334D01*
X0188599Y0161486D01*
X0188655Y0161637D01*
X0188716Y0161786D01*
X0188779Y0161934D01*
X0188847Y0162080D01*
X0188918Y0162224D01*
X0188992Y0162366D01*
X0189070Y0162507D01*
X0189152Y0162645D01*
X0189237Y0162782D01*
X0189325Y0162916D01*
X0189417Y0163048D01*
X0189512Y0163178D01*
X0189610Y0163306D01*
X0189711Y0163431D01*
X0189815Y0163553D01*
X0189922Y0163673D01*
X0190032Y0163790D01*
X0190145Y0163905D01*
X0190261Y0164016D01*
X0190380Y0164125D01*
X0190501Y0164230D01*
X0190625Y0164333D01*
X0190751Y0164433D01*
X0190879Y0164529D01*
X0191010Y0164622D01*
X0191144Y0164712D01*
X0191279Y0164799D01*
X0191417Y0164882D01*
X0191556Y0164962D01*
X0191698Y0165038D01*
X0191841Y0165111D01*
X0191986Y0165180D01*
X0192133Y0165246D01*
X0192281Y0165308D01*
X0192431Y0165366D01*
X0192582Y0165421D01*
X0192735Y0165472D01*
X0192889Y0165519D01*
X0193044Y0165562D01*
X0193200Y0165601D01*
X0193356Y0165637D01*
X0193514Y0165668D01*
X0193672Y0165696D01*
X0193831Y0165720D01*
X0193991Y0165740D01*
X0194151Y0165756D01*
X0194311Y0165768D01*
X0194472Y0165776D01*
X0194633Y0165780D01*
X0194793Y0165780D01*
X0194954Y0165776D01*
X0195115Y0165768D01*
X0195275Y0165756D01*
X0195435Y0165740D01*
X0195595Y0165720D01*
X0195754Y0165696D01*
X0195912Y0165668D01*
X0196070Y0165637D01*
X0196226Y0165601D01*
X0196382Y0165562D01*
X0196537Y0165519D01*
X0196691Y0165472D01*
X0196844Y0165421D01*
X0196995Y0165366D01*
X0197145Y0165308D01*
X0197293Y0165246D01*
X0197440Y0165180D01*
X0197585Y0165111D01*
X0197728Y0165038D01*
X0197870Y0164962D01*
X0198009Y0164882D01*
X0198147Y0164799D01*
X0198282Y0164712D01*
X0198416Y0164622D01*
X0198547Y0164529D01*
X0198675Y0164433D01*
X0198801Y0164333D01*
X0198925Y0164230D01*
X0199046Y0164125D01*
X0199165Y0164016D01*
X0199281Y0163905D01*
X0199394Y0163790D01*
X0199504Y0163673D01*
X0199611Y0163553D01*
X0199715Y0163431D01*
X0199816Y0163306D01*
X0199914Y0163178D01*
X0200009Y0163048D01*
X0200101Y0162916D01*
X0200189Y0162782D01*
X0200274Y0162645D01*
X0200356Y0162507D01*
X0200434Y0162366D01*
X0200508Y0162224D01*
X0200579Y0162080D01*
X0200647Y0161934D01*
X0200710Y0161786D01*
X0200771Y0161637D01*
X0200827Y0161486D01*
X0200880Y0161334D01*
X0200929Y0161181D01*
X0200974Y0161027D01*
X0201015Y0160872D01*
X0201053Y0160715D01*
X0201086Y0160558D01*
X0201116Y0160400D01*
X0201142Y0160241D01*
X0201163Y0160082D01*
X0201181Y0159922D01*
X0201195Y0159762D01*
X0201205Y0159601D01*
X0201211Y0159441D01*
X0201213Y0159280D01*
X0201211Y0159119D01*
X0201205Y0158959D01*
X0201195Y0158798D01*
X0201181Y0158638D01*
X0201163Y0158478D01*
X0201142Y0158319D01*
X0201116Y0158160D01*
X0201086Y0158002D01*
X0201053Y0157845D01*
X0201015Y0157688D01*
X0200974Y0157533D01*
X0200929Y0157379D01*
X0200880Y0157226D01*
X0200827Y0157074D01*
X0200771Y0156923D01*
X0200710Y0156774D01*
X0200647Y0156626D01*
X0200579Y0156480D01*
X0200508Y0156336D01*
X0200434Y0156194D01*
X0200356Y0156053D01*
X0200274Y0155915D01*
X0200189Y0155778D01*
X0200101Y0155644D01*
X0200009Y0155512D01*
X0199914Y0155382D01*
X0199816Y0155254D01*
X0199715Y0155129D01*
X0199611Y0155007D01*
X0199504Y0154887D01*
X0199394Y0154770D01*
X0199281Y0154655D01*
X0199165Y0154544D01*
X0199046Y0154435D01*
X0198925Y0154330D01*
X0198801Y0154227D01*
X0198675Y0154127D01*
X0198547Y0154031D01*
X0198416Y0153938D01*
X0198282Y0153848D01*
X0198147Y0153761D01*
X0198009Y0153678D01*
X0197870Y0153598D01*
X0197728Y0153522D01*
X0197585Y0153449D01*
X0197440Y0153380D01*
X0197293Y0153314D01*
X0197145Y0153252D01*
X0196995Y0153194D01*
X0196844Y0153139D01*
X0196691Y0153088D01*
X0196537Y0153041D01*
X0196382Y0152998D01*
X0196226Y0152959D01*
X0196070Y0152923D01*
X0195912Y0152892D01*
X0195754Y0152864D01*
X0195595Y0152840D01*
X0195435Y0152820D01*
X0195275Y0152804D01*
X0195115Y0152792D01*
X0194954Y0152784D01*
X0194793Y0152780D01*
X0194633Y0152780D01*
X0194472Y0152784D01*
X0194311Y0152792D01*
X0194151Y0152804D01*
X0193991Y0152820D01*
X0193831Y0152840D01*
X0193672Y0152864D01*
X0193514Y0152892D01*
X0193356Y0152923D01*
X0193200Y0152959D01*
X0193044Y0152998D01*
X0192889Y0153041D01*
X0192735Y0153088D01*
X0192582Y0153139D01*
X0192431Y0153194D01*
X0192281Y0153252D01*
X0192133Y0153314D01*
X0191986Y0153380D01*
X0191841Y0153449D01*
X0191698Y0153522D01*
X0191556Y0153598D01*
X0191417Y0153678D01*
X0191279Y0153761D01*
X0191144Y0153848D01*
X0191010Y0153938D01*
X0190879Y0154031D01*
X0190751Y0154127D01*
X0190625Y0154227D01*
X0190501Y0154330D01*
X0190380Y0154435D01*
X0190261Y0154544D01*
X0190145Y0154655D01*
X0190032Y0154770D01*
X0189922Y0154887D01*
X0189815Y0155007D01*
X0189711Y0155129D01*
X0189610Y0155254D01*
X0189512Y0155382D01*
X0189417Y0155512D01*
X0189325Y0155644D01*
X0189237Y0155778D01*
X0189152Y0155915D01*
X0189070Y0156053D01*
X0188992Y0156194D01*
X0188918Y0156336D01*
X0188847Y0156480D01*
X0188779Y0156626D01*
X0188716Y0156774D01*
X0188655Y0156923D01*
X0188599Y0157074D01*
X0188546Y0157226D01*
X0188497Y0157379D01*
X0188452Y0157533D01*
X0188411Y0157688D01*
X0188373Y0157845D01*
X0188340Y0158002D01*
X0188310Y0158160D01*
X0188284Y0158319D01*
X0188263Y0158478D01*
X0188245Y0158638D01*
X0188231Y0158798D01*
X0188221Y0158959D01*
X0188215Y0159119D01*
X0188213Y0159280D01*
X0188213Y0013611D02*
X0188215Y0013772D01*
X0188221Y0013932D01*
X0188231Y0014093D01*
X0188245Y0014253D01*
X0188263Y0014413D01*
X0188284Y0014572D01*
X0188310Y0014731D01*
X0188340Y0014889D01*
X0188373Y0015046D01*
X0188411Y0015203D01*
X0188452Y0015358D01*
X0188497Y0015512D01*
X0188546Y0015665D01*
X0188599Y0015817D01*
X0188655Y0015968D01*
X0188716Y0016117D01*
X0188779Y0016265D01*
X0188847Y0016411D01*
X0188918Y0016555D01*
X0188992Y0016697D01*
X0189070Y0016838D01*
X0189152Y0016976D01*
X0189237Y0017113D01*
X0189325Y0017247D01*
X0189417Y0017379D01*
X0189512Y0017509D01*
X0189610Y0017637D01*
X0189711Y0017762D01*
X0189815Y0017884D01*
X0189922Y0018004D01*
X0190032Y0018121D01*
X0190145Y0018236D01*
X0190261Y0018347D01*
X0190380Y0018456D01*
X0190501Y0018561D01*
X0190625Y0018664D01*
X0190751Y0018764D01*
X0190879Y0018860D01*
X0191010Y0018953D01*
X0191144Y0019043D01*
X0191279Y0019130D01*
X0191417Y0019213D01*
X0191556Y0019293D01*
X0191698Y0019369D01*
X0191841Y0019442D01*
X0191986Y0019511D01*
X0192133Y0019577D01*
X0192281Y0019639D01*
X0192431Y0019697D01*
X0192582Y0019752D01*
X0192735Y0019803D01*
X0192889Y0019850D01*
X0193044Y0019893D01*
X0193200Y0019932D01*
X0193356Y0019968D01*
X0193514Y0019999D01*
X0193672Y0020027D01*
X0193831Y0020051D01*
X0193991Y0020071D01*
X0194151Y0020087D01*
X0194311Y0020099D01*
X0194472Y0020107D01*
X0194633Y0020111D01*
X0194793Y0020111D01*
X0194954Y0020107D01*
X0195115Y0020099D01*
X0195275Y0020087D01*
X0195435Y0020071D01*
X0195595Y0020051D01*
X0195754Y0020027D01*
X0195912Y0019999D01*
X0196070Y0019968D01*
X0196226Y0019932D01*
X0196382Y0019893D01*
X0196537Y0019850D01*
X0196691Y0019803D01*
X0196844Y0019752D01*
X0196995Y0019697D01*
X0197145Y0019639D01*
X0197293Y0019577D01*
X0197440Y0019511D01*
X0197585Y0019442D01*
X0197728Y0019369D01*
X0197870Y0019293D01*
X0198009Y0019213D01*
X0198147Y0019130D01*
X0198282Y0019043D01*
X0198416Y0018953D01*
X0198547Y0018860D01*
X0198675Y0018764D01*
X0198801Y0018664D01*
X0198925Y0018561D01*
X0199046Y0018456D01*
X0199165Y0018347D01*
X0199281Y0018236D01*
X0199394Y0018121D01*
X0199504Y0018004D01*
X0199611Y0017884D01*
X0199715Y0017762D01*
X0199816Y0017637D01*
X0199914Y0017509D01*
X0200009Y0017379D01*
X0200101Y0017247D01*
X0200189Y0017113D01*
X0200274Y0016976D01*
X0200356Y0016838D01*
X0200434Y0016697D01*
X0200508Y0016555D01*
X0200579Y0016411D01*
X0200647Y0016265D01*
X0200710Y0016117D01*
X0200771Y0015968D01*
X0200827Y0015817D01*
X0200880Y0015665D01*
X0200929Y0015512D01*
X0200974Y0015358D01*
X0201015Y0015203D01*
X0201053Y0015046D01*
X0201086Y0014889D01*
X0201116Y0014731D01*
X0201142Y0014572D01*
X0201163Y0014413D01*
X0201181Y0014253D01*
X0201195Y0014093D01*
X0201205Y0013932D01*
X0201211Y0013772D01*
X0201213Y0013611D01*
X0201211Y0013450D01*
X0201205Y0013290D01*
X0201195Y0013129D01*
X0201181Y0012969D01*
X0201163Y0012809D01*
X0201142Y0012650D01*
X0201116Y0012491D01*
X0201086Y0012333D01*
X0201053Y0012176D01*
X0201015Y0012019D01*
X0200974Y0011864D01*
X0200929Y0011710D01*
X0200880Y0011557D01*
X0200827Y0011405D01*
X0200771Y0011254D01*
X0200710Y0011105D01*
X0200647Y0010957D01*
X0200579Y0010811D01*
X0200508Y0010667D01*
X0200434Y0010525D01*
X0200356Y0010384D01*
X0200274Y0010246D01*
X0200189Y0010109D01*
X0200101Y0009975D01*
X0200009Y0009843D01*
X0199914Y0009713D01*
X0199816Y0009585D01*
X0199715Y0009460D01*
X0199611Y0009338D01*
X0199504Y0009218D01*
X0199394Y0009101D01*
X0199281Y0008986D01*
X0199165Y0008875D01*
X0199046Y0008766D01*
X0198925Y0008661D01*
X0198801Y0008558D01*
X0198675Y0008458D01*
X0198547Y0008362D01*
X0198416Y0008269D01*
X0198282Y0008179D01*
X0198147Y0008092D01*
X0198009Y0008009D01*
X0197870Y0007929D01*
X0197728Y0007853D01*
X0197585Y0007780D01*
X0197440Y0007711D01*
X0197293Y0007645D01*
X0197145Y0007583D01*
X0196995Y0007525D01*
X0196844Y0007470D01*
X0196691Y0007419D01*
X0196537Y0007372D01*
X0196382Y0007329D01*
X0196226Y0007290D01*
X0196070Y0007254D01*
X0195912Y0007223D01*
X0195754Y0007195D01*
X0195595Y0007171D01*
X0195435Y0007151D01*
X0195275Y0007135D01*
X0195115Y0007123D01*
X0194954Y0007115D01*
X0194793Y0007111D01*
X0194633Y0007111D01*
X0194472Y0007115D01*
X0194311Y0007123D01*
X0194151Y0007135D01*
X0193991Y0007151D01*
X0193831Y0007171D01*
X0193672Y0007195D01*
X0193514Y0007223D01*
X0193356Y0007254D01*
X0193200Y0007290D01*
X0193044Y0007329D01*
X0192889Y0007372D01*
X0192735Y0007419D01*
X0192582Y0007470D01*
X0192431Y0007525D01*
X0192281Y0007583D01*
X0192133Y0007645D01*
X0191986Y0007711D01*
X0191841Y0007780D01*
X0191698Y0007853D01*
X0191556Y0007929D01*
X0191417Y0008009D01*
X0191279Y0008092D01*
X0191144Y0008179D01*
X0191010Y0008269D01*
X0190879Y0008362D01*
X0190751Y0008458D01*
X0190625Y0008558D01*
X0190501Y0008661D01*
X0190380Y0008766D01*
X0190261Y0008875D01*
X0190145Y0008986D01*
X0190032Y0009101D01*
X0189922Y0009218D01*
X0189815Y0009338D01*
X0189711Y0009460D01*
X0189610Y0009585D01*
X0189512Y0009713D01*
X0189417Y0009843D01*
X0189325Y0009975D01*
X0189237Y0010109D01*
X0189152Y0010246D01*
X0189070Y0010384D01*
X0188992Y0010525D01*
X0188918Y0010667D01*
X0188847Y0010811D01*
X0188779Y0010957D01*
X0188716Y0011105D01*
X0188655Y0011254D01*
X0188599Y0011405D01*
X0188546Y0011557D01*
X0188497Y0011710D01*
X0188452Y0011864D01*
X0188411Y0012019D01*
X0188373Y0012176D01*
X0188340Y0012333D01*
X0188310Y0012491D01*
X0188284Y0012650D01*
X0188263Y0012809D01*
X0188245Y0012969D01*
X0188231Y0013129D01*
X0188221Y0013290D01*
X0188215Y0013450D01*
X0188213Y0013611D01*
D20*
X0145032Y0139595D02*
X0142032Y0139595D01*
D21*
X0141532Y0139595D03*
X0145532Y0139595D03*
D22*
X0124654Y0081930D03*
X0124654Y0079961D03*
X0124654Y0077993D03*
X0124654Y0076024D03*
X0124654Y0074056D03*
X0110087Y0074056D03*
X0110087Y0076024D03*
X0110087Y0077993D03*
X0110087Y0079961D03*
X0110087Y0081930D03*
D23*
X0113434Y0085276D03*
X0115402Y0085276D03*
X0117371Y0085276D03*
X0119339Y0085276D03*
X0121308Y0085276D03*
X0121308Y0070709D03*
X0119339Y0070709D03*
X0117371Y0070709D03*
X0115402Y0070709D03*
X0113434Y0070709D03*
D24*
X0112942Y0073564D02*
X0121800Y0073564D01*
X0112942Y0073564D02*
X0112942Y0082422D01*
X0121800Y0082422D01*
X0121800Y0073564D01*
X0121800Y0074547D02*
X0112942Y0074547D01*
X0112942Y0075530D02*
X0121800Y0075530D01*
X0121800Y0076513D02*
X0112942Y0076513D01*
X0112942Y0077496D02*
X0121800Y0077496D01*
X0121800Y0078479D02*
X0112942Y0078479D01*
X0112942Y0079462D02*
X0121800Y0079462D01*
X0121800Y0080445D02*
X0112942Y0080445D01*
X0112942Y0081428D02*
X0121800Y0081428D01*
X0121800Y0082411D02*
X0112942Y0082411D01*
D25*
X0110087Y0081930D02*
X0103166Y0081930D01*
X0098257Y0086839D01*
X0098257Y0093926D02*
X0097666Y0094517D01*
X0097666Y0100225D01*
X0098650Y0094320D02*
X0098257Y0093926D01*
X0098650Y0094320D02*
X0110068Y0094320D01*
X0113434Y0090954D01*
X0113434Y0085276D01*
X0115402Y0085276D02*
X0115402Y0092331D01*
X0097666Y0110068D01*
X0097666Y0119910D01*
X0090973Y0119910D02*
X0084477Y0126406D01*
X0084477Y0145501D01*
X0100225Y0161249D01*
X0173060Y0161249D01*
X0186839Y0147469D01*
X0186839Y0058887D01*
X0169713Y0041761D01*
X0161249Y0041761D01*
X0146879Y0027391D01*
X0123847Y0027391D01*
X0117942Y0033296D01*
X0117942Y0043729D01*
X0117942Y0050422D02*
X0123060Y0050422D01*
X0130343Y0043139D01*
X0137036Y0043139D02*
X0137627Y0043139D01*
X0137627Y0033296D01*
X0137036Y0043139D02*
X0138217Y0044320D01*
X0138217Y0051013D01*
X0129753Y0051013D01*
X0117371Y0063394D01*
X0117371Y0070709D01*
X0119339Y0070709D02*
X0119339Y0067331D01*
X0129162Y0057509D01*
X0145501Y0057509D01*
X0145501Y0051603D01*
X0144910Y0051013D01*
X0148060Y0064202D02*
X0159280Y0052981D01*
X0161249Y0052981D01*
X0161249Y0048454D01*
X0161249Y0052981D02*
X0175028Y0052981D01*
X0182902Y0060855D01*
X0182902Y0094320D01*
X0177292Y0099930D01*
X0178965Y0101603D01*
X0178965Y0135068D01*
X0174438Y0139595D01*
X0167745Y0139595D02*
X0160265Y0139595D01*
X0154359Y0139595D02*
X0145532Y0139595D01*
X0141532Y0139595D02*
X0135658Y0139595D01*
X0141532Y0145469D02*
X0141564Y0145501D01*
X0123847Y0139595D02*
X0117942Y0145501D01*
X0108690Y0145501D01*
X0108690Y0151406D01*
X0108690Y0145501D02*
X0108690Y0139595D01*
X0100225Y0139595D01*
X0098257Y0137627D01*
X0115383Y0139595D02*
X0115383Y0127919D01*
X0115518Y0127784D01*
X0115518Y0120024D01*
X0115405Y0119910D01*
X0115973Y0119910D01*
X0119910Y0115973D01*
X0119910Y0096288D01*
X0117371Y0093749D01*
X0117371Y0085276D01*
X0119339Y0085276D02*
X0119339Y0091780D01*
X0123847Y0096288D01*
X0123847Y0139595D01*
X0115518Y0129753D02*
X0115518Y0127784D01*
X0133690Y0106131D02*
X0145501Y0117942D01*
X0133690Y0106131D02*
X0133690Y0088414D01*
X0127206Y0081930D01*
X0124654Y0081930D01*
X0124654Y0079961D02*
X0135080Y0079961D01*
X0140186Y0085068D01*
X0140186Y0092351D01*
X0140166Y0092371D01*
X0140166Y0099795D01*
X0146879Y0092351D02*
X0154753Y0092351D01*
X0155343Y0091761D01*
X0155343Y0098166D01*
X0167107Y0109930D01*
X0167245Y0110068D01*
X0167107Y0099930D02*
X0177292Y0099930D01*
X0173513Y0089930D02*
X0167107Y0089930D01*
X0173513Y0089930D02*
X0178965Y0084477D01*
X0178965Y0062824D01*
X0173060Y0056918D01*
X0161249Y0056918D01*
X0144111Y0074056D01*
X0124654Y0074056D01*
X0124654Y0076024D02*
X0148048Y0076024D01*
X0163217Y0060855D01*
X0171091Y0060855D01*
X0175028Y0064792D01*
X0175028Y0076603D01*
X0171702Y0079930D01*
X0167107Y0079930D01*
X0159044Y0077993D02*
X0155343Y0081694D01*
X0155343Y0085068D01*
X0159044Y0077993D02*
X0167107Y0069930D01*
X0159044Y0077993D02*
X0124654Y0077993D01*
X0121308Y0081930D02*
X0117371Y0077993D01*
X0121308Y0081930D02*
X0121308Y0085276D01*
X0122678Y0085276D01*
X0123847Y0086446D01*
X0121879Y0088414D02*
X0125816Y0088414D01*
X0121879Y0088414D02*
X0121308Y0087843D01*
X0121308Y0085276D01*
X0110087Y0079961D02*
X0083087Y0079961D01*
X0082509Y0080540D01*
X0076603Y0086446D01*
X0052391Y0086446D01*
X0045698Y0086446D02*
X0037233Y0086446D01*
X0031328Y0082509D02*
X0035843Y0077993D01*
X0110087Y0077993D01*
X0110087Y0076024D02*
X0099056Y0076024D01*
X0093729Y0070698D01*
X0087036Y0070698D02*
X0087036Y0060229D01*
X0087333Y0059932D01*
X0093397Y0059932D01*
X0103178Y0069713D01*
X0102194Y0068729D01*
X0103178Y0069713D02*
X0107520Y0074056D01*
X0110087Y0074056D01*
X0110086Y0076023D02*
X0110087Y0076024D01*
X0113434Y0070709D02*
X0113434Y0055954D01*
X0108099Y0050619D01*
X0103769Y0050619D01*
X0102194Y0049044D01*
X0102194Y0033296D01*
X0084477Y0015580D01*
X0025422Y0015580D01*
X0007706Y0033296D01*
X0007706Y0098257D01*
X0037233Y0127784D01*
X0068729Y0127784D01*
X0073257Y0123257D01*
X0073257Y0100225D01*
X0066170Y0100225D01*
X0059477Y0100225D02*
X0052391Y0100225D01*
X0052391Y0110068D01*
X0059477Y0110068D01*
X0066170Y0110068D02*
X0066170Y0117351D01*
X0066761Y0117942D01*
X0058887Y0100816D02*
X0059477Y0100225D01*
X0045698Y0100225D02*
X0045698Y0086446D01*
X0045090Y0087054D01*
X0031328Y0082509D02*
X0031328Y0102784D01*
X0031328Y0109477D02*
X0026800Y0109477D01*
X0023454Y0106131D01*
X0023454Y0096603D01*
X0019831Y0096603D01*
X0011643Y0088414D01*
X0011643Y0042688D01*
X0024590Y0029741D01*
X0032070Y0056906D02*
X0015580Y0073397D01*
X0015580Y0078729D01*
X0023454Y0086603D01*
X0023454Y0076603D02*
X0031328Y0068729D01*
X0071844Y0068729D01*
X0077176Y0063397D01*
X0064792Y0051013D01*
X0064792Y0033329D01*
X0061204Y0029741D01*
X0080640Y0059932D02*
X0077176Y0063397D01*
X0082509Y0080540D02*
X0080540Y0082509D01*
X0079950Y0100225D02*
X0090973Y0100225D01*
X0090973Y0110068D01*
X0045698Y0110068D02*
X0031918Y0110068D01*
X0031328Y0109477D01*
X0030422Y0109477D01*
X0108099Y0043532D02*
X0108099Y0035265D01*
X0110068Y0033296D01*
X0117942Y0050422D02*
X0115402Y0052961D01*
X0115402Y0070709D01*
X0121308Y0070709D02*
X0121308Y0069300D01*
X0126406Y0064202D01*
X0145501Y0064202D01*
X0148060Y0064202D01*
X0146091Y0064792D02*
X0145501Y0064202D01*
D26*
X0137627Y0033296D03*
X0110068Y0033296D03*
X0037233Y0086446D03*
X0066761Y0117942D03*
X0098257Y0137627D03*
X0145501Y0117942D03*
X0196682Y0119910D03*
M02*
